<svg width="60" height="64" viewBox="0 0 60 64" fill="none" xmlns="http://www.w3.org/2000/svg">
<path d="M20.9111 6.95606C21.1451 6.92527 21.4149 6.917 21.6421 6.98824L21.7323 7.12195L21.0362 7.13146C20.9917 7.11595 20.9383 6.99973 20.9111 6.95606Z" fill="#D3DADF"/>
<path d="M23.2023 16.1159L22.0893 14.2179L19.9199 10.446L18.5765 8.11973L18.1225 7.3297C18.0622 7.22086 17.9856 7.10909 17.9717 6.98467L18.1883 6.98416L18.2178 6.9917C18.3392 7.02059 18.6032 6.98365 18.6913 7.02198C18.7201 7.03448 18.8434 7.24134 18.8703 7.28361C19.438 8.17905 19.8822 9.17528 20.3909 10.1071C21.1689 11.5324 22.0379 12.9186 22.9482 14.2626C23.2485 14.7059 23.5015 15.2292 23.8848 15.6044C23.6819 15.7614 23.4303 16.0109 23.2023 16.1159Z" fill="#949A9E"/>
<path d="M18.1895 6.9841L19.9741 6.97064L24.4281 15.2009C24.2598 15.3533 24.0731 15.4768 23.8859 15.6043C23.5026 15.2292 23.2496 14.7058 22.9493 14.2626C22.039 12.9185 21.17 11.5323 20.392 10.107C19.8833 9.17522 19.4391 8.17899 18.8714 7.28355C18.8445 7.24128 18.7212 7.03442 18.6924 7.02192C18.6043 6.98359 18.3403 7.02053 18.2189 6.99163L18.1895 6.9841Z" fill="#AFB8BF"/>
<path d="M48.1075 25.2937L59.4267 18.8542L59.4583 18.8808L59.3804 19.0121C59.0025 19.219 58.7058 19.5649 58.4052 19.8683C58.1265 19.9689 57.8778 20.2055 57.64 20.3794L55.6123 21.9299L54.0218 23.1142L51.1011 25.3613L49.1483 26.9208C48.8011 27.2061 48.4656 27.5511 48.0871 27.794L48.0863 26.2859C48.0871 25.9591 48.0671 25.618 48.1075 25.2937Z" fill="#39F3C4"/>
<path d="M40.6621 19.3683L55.8546 9.99371L55.8773 10.0303L55.8165 10.1654C55.6886 10.282 55.5965 10.4894 55.5006 10.6363C55.2841 10.968 55.067 11.3097 54.8218 11.6202C54.7789 11.6746 54.6854 11.8176 54.6302 11.8495C54.4509 11.8984 54.34 12.0237 54.1971 12.1345L53.5999 12.5598L51.0979 14.3293L44.9809 18.4658L42.0552 20.4287L40.6621 19.3683Z" fill="#39F3C4"/>
<path d="M38.1898 7.12922L38.3793 7.11971C38.4132 7.0808 38.4638 7.01256 38.5134 6.9912C38.5816 6.9618 38.7029 6.97855 38.7764 6.97913L39.4882 6.98645L40.7977 6.97606C40.9907 6.97738 41.217 6.95426 41.401 7.013C41.3892 7.24984 40.2156 9.18861 40.0152 9.54943L36.2936 16.1939C35.8641 15.974 35.4383 15.5664 35.0584 15.2649L34.4248 14.8111L36.2765 11.3479L36.2078 11.2862L36.2949 11.2639C36.5106 10.9608 36.6619 10.5353 36.8335 10.2004L38.0264 7.89505C38.115 7.7206 38.366 7.35019 38.3565 7.16931L38.1824 7.15234L38.1898 7.12922Z" fill="#949A9E"/>
<path d="M38.1898 7.12922L38.3793 7.11971C38.4132 7.0808 38.4638 7.01256 38.5134 6.9912C38.5816 6.9618 38.7029 6.97855 38.7764 6.97913L39.4882 6.98645L40.7977 6.97606C40.9907 6.97738 41.217 6.95426 41.401 7.013L39.6121 6.99288L35.0584 15.2649L34.4248 14.8111L36.2765 11.3479L36.2078 11.2862L36.2949 11.2639C36.5106 10.9608 36.6619 10.5353 36.8335 10.2004L38.0264 7.89505C38.115 7.7206 38.366 7.35019 38.3565 7.16931L38.1824 7.15234L38.1898 7.12922Z" fill="#D3DADF"/>
<path d="M29.9894 0.973175L36.563 6.08337L37.5224 6.85321C37.5991 6.91663 37.7493 7.08216 37.8319 7.11844C37.8969 7.14696 38.1098 7.12677 38.191 7.12926L38.1836 7.15237L37.7621 7.15991L29.9466 7.15515C29.963 6.28605 29.8526 1.24811 29.9894 0.973175Z" fill="#AFB8BF"/>
<path d="M3.81676 10.3861L3.68262 9.95636L18.8679 19.322L17.0941 20.6377L15.248 19.3385L11.9904 16.9848L9.00461 14.8191L6.46928 12.8584L5.48322 12.0235L4.71842 11.3166C4.56043 11.163 4.4589 10.9813 4.25139 10.8887C4.14709 10.7536 3.9749 10.4439 3.81676 10.3861Z" fill="#39F3C4"/>
<path d="M20.7352 53.9983L29.7809 61.2303L29.7894 61.2653C29.8489 61.896 29.8046 62.5676 29.8048 63.2036C29.8049 63.3689 29.7597 63.6999 29.8344 63.8446L29.7666 63.8637C29.3857 63.6331 29.0386 63.2858 28.7009 62.995L27.5778 62.0797L21.6579 57.2524C20.8576 56.6036 20.0736 55.8991 19.2344 55.3037L19.9982 54.6389C20.1817 54.4707 20.5113 54.0607 20.7352 53.9983Z" fill="#949A9E"/>
<path d="M21.6416 6.98819C21.7831 6.98007 21.8407 6.95396 21.9544 6.87043L27.5264 2.66922L28.8106 1.70223C29.1521 1.44054 29.515 1.14555 29.8939 0.941895L29.9881 0.973127C29.8513 1.24806 29.9616 6.286 29.9453 7.1551L21.7476 7.12833L21.7318 7.1219L21.6416 6.98819Z" fill="#DDE1E1"/>
<path d="M4.25098 10.8886C4.45849 10.9812 4.56001 11.163 4.71801 11.3165L5.4828 12.0235L6.46887 12.8584L9.0042 14.8191L11.99 16.9848L15.2476 19.3385L17.0937 20.6377L13.1973 23.4824L11.0008 20.4067L7.22401 15.0837L5.05235 12.0587C4.78735 11.683 4.447 11.3037 4.25098 10.8886Z" fill="#21C6A4"/>
<path d="M42.0557 20.4287L44.9814 18.4659L51.0984 14.3293L53.6004 12.5599L54.1976 12.1346C54.3404 12.0237 54.4513 11.8984 54.6306 11.8496C54.5025 12.0908 54.3317 12.3041 54.1754 12.5272L53.4595 13.5514L50.7415 17.3303L47.6194 21.8282C47.1933 22.461 46.8264 23.1642 46.3714 23.7718L42.0557 20.4287Z" fill="#21C6A4"/>
<path d="M3.81641 10.3861C3.97454 10.444 4.14673 10.7537 4.25103 10.8887C4.44706 11.3038 4.7874 11.683 5.0524 12.0587L7.22406 15.0837L11.0009 20.4068L13.1973 23.4825L12.2279 24.2055C12.0393 24.3427 11.836 24.5203 11.6044 24.5692C11.5151 24.4649 11.3411 24.4055 11.219 24.3461C11.0021 24.2405 10.7203 24.0508 10.4878 24.0032L9.59256 23.4565L7.27761 22.008C7.13863 21.9209 6.77978 21.7572 6.68601 21.644C6.65463 21.6062 6.62574 21.3901 6.61236 21.3336L6.36644 20.3093L3.81641 10.3861Z" fill="#0A957A"/>
<path d="M54.6303 11.8496C54.6856 11.8177 54.779 11.6747 54.8219 11.6202C55.0672 11.3097 55.2843 10.968 55.5007 10.6363C55.5966 10.4894 55.6888 10.2821 55.8166 10.1654L53.4055 19.3044L52.8712 21.4896C52.8451 21.5871 52.8054 21.8573 52.7557 21.9273C52.6952 22.0127 52.4417 22.1316 52.3418 22.1901L49.3999 23.9591C48.9265 24.2536 48.4018 24.5338 47.986 24.9051C47.7355 24.8997 46.6485 23.9786 46.3711 23.7718C46.8261 23.1641 47.193 22.461 47.6191 21.8282L50.7412 17.3303L53.4592 13.5513L54.1751 12.5272C54.3313 12.3041 54.5022 12.0908 54.6303 11.8496Z" fill="#0A957A"/>
<path d="M11.4785 38.8958L8.10495 37.4548C7.85647 37.3432 7.54276 37.2629 7.31784 37.1118C7.08443 36.955 6.87275 36.6478 6.68887 36.435L5.52872 35.0879L1.78906 30.8033L1.82527 30.7547L2.0281 30.7818L2.31614 30.794L5.18897 30.8842C5.50495 30.8946 5.95099 30.9594 6.25198 30.8927L10.5525 31.4371C10.7449 31.4698 11.3529 31.6392 11.5084 31.5613L11.4909 35.0457L11.4932 35.9894L11.4921 38.0098C11.4925 38.2661 11.5475 38.6544 11.4785 38.8958Z" fill="#0A957A"/>
<path d="M2.02832 30.7817L2.31636 30.794L5.18919 30.8842C5.50517 30.8945 5.95121 30.9594 6.2522 30.8926L10.5527 31.437C10.7451 31.4697 11.3531 31.6391 11.5087 31.5612L11.4911 35.0457L11.4934 35.9894L8.00555 34.0753L5.65446 32.8058L3.79922 31.7498L2.51217 31.0587C2.34445 30.9696 2.15808 30.9226 2.02832 30.7817Z" fill="#21C6A4"/>
<path d="M2.31641 30.794L5.18923 30.8843C5.50522 30.8946 5.95125 30.9595 6.25224 30.8927L10.5528 31.4371C10.7451 31.4698 11.3531 31.6392 11.5087 31.5613L11.4911 35.0458C11.4173 34.355 11.4821 33.5976 11.4842 32.8996C11.3421 32.8064 11.0632 32.7849 10.8933 32.7453L8.4999 32.2328L3.86934 31.2113C3.35118 31.0888 2.83317 30.8889 2.31641 30.794Z" fill="#39F3C4"/>
<path d="M48.4802 31.0403L53.2557 30.7494L56.7525 30.751L57.4175 30.7455L57.6524 30.7427L57.6639 30.8034L52.8775 36.1892L52.0848 37.0619C51.9723 37.1864 51.826 37.3867 51.68 37.4615C51.5275 37.5396 51.3257 37.5797 51.1609 37.627L50.3079 37.8644L48.0611 38.4727L48.0581 35.7513L48.0527 33.2428L48.0663 31.1066L48.0804 31.0971L48.1254 31.0434L48.4802 31.0403Z" fill="#0A957A"/>
<path d="M48.4802 31.0403L53.2557 30.7494L56.7525 30.751L57.4175 30.7454C57.1551 30.961 56.8005 31.1027 56.5017 31.2656L53.4666 32.8437L49.5199 35.0019L48.5084 35.5522C48.3682 35.6215 48.2101 35.7176 48.0581 35.7513L48.0527 33.2427L48.0663 31.1065L48.0804 31.0971L48.1254 31.0434L48.4802 31.0403Z" fill="#21C6A4"/>
<path d="M48.4802 31.0402L53.2557 30.7493L56.7525 30.7509C56.3388 30.9418 55.8167 31.0225 55.3719 31.1423L52.9346 31.8144L49.6866 32.756L48.0527 33.2427L48.0663 31.1065L48.0804 31.0971L48.1254 31.0434L48.4802 31.0402Z" fill="#39F3C4"/>
<path d="M58.4048 19.8683C58.7054 19.5649 59.0021 19.219 59.38 19.0122L53.2559 30.7494L48.4803 31.0403L48.1255 31.0434L48.0805 31.0971L48.0664 31.1066L48.0867 27.7941C48.4652 27.5511 48.8007 27.2061 49.1478 26.9209L51.1007 25.3613L54.0214 23.1142L55.6119 21.93L57.6396 20.3794C57.8774 20.2055 58.126 19.9689 58.4048 19.8683Z" fill="#0A957A"/>
<path d="M58.4048 19.8683L48.4803 31.0403L48.1255 31.0434L48.0805 31.0971L48.0664 31.1065L48.0867 27.794C48.4652 27.5511 48.8007 27.2061 49.1478 26.9208L51.1007 25.3613L54.0214 23.1142L55.6119 21.93L57.6396 20.3794C57.8774 20.2055 58.126 19.9689 58.4048 19.8683Z" fill="#21C6A4"/>
<path d="M46.4075 43.5444C46.5971 43.5632 46.7854 43.8056 46.9192 43.9328C47.2703 44.2664 47.6394 44.6793 48.0526 44.934C48.0143 45.1114 47.6907 45.3381 47.55 45.4601L45.9309 46.8235L42.271 49.8905C41.6444 50.4195 40.9517 50.934 40.3876 51.5271C40.3224 51.5956 40.2367 51.6816 40.2048 51.7721C40.1627 51.8917 40.1918 52.1859 40.191 52.3261L40.1921 54.5821C40.1923 54.6906 40.2283 55.0504 40.193 55.13C40.1183 55.2982 39.6983 55.5785 39.5458 55.7037L38.0124 56.9994L32.7702 61.3816L30.7791 63.0564C30.4717 63.316 30.1723 63.6268 29.835 63.8446C29.7603 63.7 29.8055 63.3689 29.8054 63.2036C29.8052 62.5676 29.8495 61.896 29.79 61.2653L38.7668 53.8901L38.7314 50.0944L38.7258 50.037C39.0669 49.8041 39.3712 49.509 39.6811 49.2366L41.0498 48.0556L46.4075 43.5444Z" fill="#696F73"/>
<path d="M6.25213 30.8927L0.0566406 18.9782L0.0699529 18.946L0.211853 19.0008L9.07602 23.3655L9.96268 23.7935C10.118 23.8717 10.3127 24.0073 10.4876 24.0032C10.7201 24.0508 11.0018 24.2404 11.2188 24.3461C11.3409 24.4055 11.5149 24.4649 11.6042 24.5692C11.5756 24.6053 11.5382 24.6359 11.5185 24.6775C11.4441 24.8347 11.4897 25.2702 11.4895 25.4501L11.4945 27.614L11.5071 31.5162L11.5086 31.5613C11.353 31.6392 10.745 31.4698 10.5527 31.4371L6.25213 30.8927Z" fill="#21C6A4"/>
<path d="M0.211914 19.0008L9.07608 23.3655L9.96274 23.7935C10.118 23.8717 10.3127 24.0073 10.4876 24.0032C10.7201 24.0508 11.0019 24.2405 11.2188 24.3461C11.3409 24.4055 11.5149 24.4649 11.6042 24.5692C11.5756 24.6053 11.5383 24.6359 11.5186 24.6775C11.4441 24.8348 11.4898 25.2702 11.4896 25.4501L11.4945 27.614L5.22831 22.7744L2.86318 21.0786L1.61563 20.1734C1.39466 20.0113 1.17172 19.804 0.920172 19.6953C0.67565 19.5239 0.344452 19.269 0.211914 19.0008Z" fill="#39F3C4"/>
<path d="M6.25213 30.8927L0.0566406 18.9782L0.0699529 18.946L0.211853 19.0008C0.344391 19.269 0.67559 19.5239 0.920112 19.6952C0.958366 19.8325 1.02039 19.8981 1.11482 20.0024L5.25605 24.2935L7.35061 26.5485L10.3028 29.7632L11.124 30.6872C11.2033 30.7732 11.4292 30.9663 11.4727 31.0684C11.5245 31.1897 11.4365 31.3813 11.5071 31.5162L11.5086 31.5613C11.353 31.6392 10.745 31.4698 10.5527 31.4371L6.25213 30.8927Z" fill="#0A957A"/>
<path d="M21.748 7.12836L29.9457 7.15513L37.7613 7.15988L38.1827 7.15235L38.3568 7.16932C38.3663 7.3502 38.1153 7.72061 38.0268 7.89506L36.8339 10.2004C36.6623 10.5354 36.511 10.9608 36.2953 11.2639L36.2081 11.2862L36.2768 11.3479L34.4252 14.8111C34.2486 14.6434 34.0225 14.5075 33.8264 14.362C33.4375 14.0732 33.0628 13.786 32.7257 13.4371C32.2592 12.7867 31.6863 12.2713 31.0779 11.7565C30.918 11.6213 30.7615 11.4534 30.574 11.3583L30.593 11.2926L29.8347 11.289L28.8769 11.2898L23.1512 11.2868L22.8762 10.7334C22.9126 10.608 22.9595 10.4972 23.045 10.396C23.1896 10.2249 23.2263 10.2133 23.4393 10.1916C23.38 10.0022 23.2476 9.79769 23.1632 9.61476L21.9752 7.17766L21.748 7.12836Z" fill="#983123"/>
<path d="M30.5923 11.2926L36.2074 11.2862L36.2761 11.3479L34.4244 14.8111C34.2479 14.6434 34.0218 14.5075 33.8257 14.362C33.4368 14.0732 33.0621 13.786 32.725 13.4371C32.2585 12.7867 31.6856 12.2713 31.0772 11.7565C30.9173 11.6212 30.7608 11.4534 30.5732 11.3583L30.5923 11.2926Z" fill="#FEFEFE"/>
<path d="M29.9456 7.15512L37.7612 7.15988C37.5967 7.65996 37.2605 8.16013 37.0048 8.62167C36.7126 9.14926 36.4468 9.7086 36.0959 10.2005L31.7813 10.1947L30.5507 10.1924C30.3566 10.1931 30.1415 10.1765 29.95 10.205L29.9277 10.1977C29.9976 9.9853 29.9478 9.59683 29.9478 9.36621L29.9456 7.15512Z" fill="#BF3C25"/>
<path d="M21.748 7.12836L29.9457 7.15513L29.9479 9.36621C29.9479 9.59684 29.9977 9.98531 29.9279 10.1977L23.4393 10.1916C23.38 10.0022 23.2476 9.79769 23.1632 9.61476L21.9752 7.17766L21.748 7.12836Z" fill="#EF765E"/>
<path d="M41.422 23.4879L46.0234 26.9502L46.1132 26.8985L46.1726 26.9156L46.1868 26.9504C46.216 27.0082 46.2478 27.0181 46.2977 27.0544L46.3647 27.1095L46.3783 33.6201C46.4281 33.3209 46.4009 32.981 46.4022 32.6764L46.4097 30.8206L46.4181 28.1109C46.4184 27.7707 46.4768 27.2808 46.3927 26.9605C46.3605 26.8379 46.2683 26.7893 46.1683 26.7273C46.463 26.3376 46.8636 26.0024 47.2139 25.6616C47.4598 25.4225 47.7183 25.1148 48.0109 24.9415C48.0603 25.0628 48.0993 25.1624 48.1078 25.2937C48.0675 25.618 48.0874 25.9591 48.0866 26.2858L48.0875 27.794L48.0672 31.1065L48.0536 33.2427L48.059 35.7513L48.062 38.4726L48.0678 43.0495L48.0718 44.2696C48.0724 44.4825 48.0965 44.7259 48.0524 44.934C47.6392 44.6793 47.2701 44.2664 46.919 43.9328C46.7852 43.8056 46.5969 43.5632 46.4072 43.5444L41.0496 48.0556L39.6809 49.2365C39.3709 49.5089 39.0667 49.8041 38.7256 50.037L38.7312 50.0944L38.7666 53.8901L29.7898 61.2653L29.7812 61.2303C29.8482 61.0499 29.8151 60.7976 29.8154 60.6036L29.8012 59.096C29.8711 59.0834 29.9092 59.0656 29.9658 59.0224L31.7236 57.5542L37.1851 53.127L37.1855 49.2652L45.0858 42.5848L45.0893 27.6352L45.0777 27.5771C44.8533 27.2753 44.3493 26.9847 44.0398 26.7616L42.7848 25.8256L41.4361 24.8115C41.2291 24.6577 41.0336 24.4865 40.8147 24.3498C40.9392 24.0746 41.2237 23.721 41.422 23.4879Z" fill="#AFB8BF"/>
<path d="M46.168 26.7274C46.4627 26.3376 46.8633 26.0024 47.2136 25.6616C47.4595 25.4225 47.718 25.1148 48.0106 24.9415C48.06 25.0628 48.0991 25.1624 48.1075 25.2937C48.0672 25.618 48.0871 25.9591 48.0863 26.2859L48.0872 27.794L48.0669 31.1065L48.0533 33.2427L48.0588 35.7513L48.0617 38.4726L48.0675 43.0496L48.0716 44.2696C48.0721 44.4825 48.0962 44.7259 48.0521 44.934C47.6389 44.6793 47.2698 44.2664 46.9187 43.9328C46.7849 43.8056 46.5966 43.5632 46.4069 43.5444L46.378 33.6201C46.4278 33.3209 46.4006 32.981 46.402 32.6764L46.4094 30.8206L46.4178 28.111C46.4181 27.7707 46.4765 27.2808 46.3924 26.9605C46.3602 26.8379 46.268 26.7893 46.168 26.7274Z" fill="#949A9E"/>
<path d="M20.2399 39.2561C20.3999 39.507 20.5992 39.705 20.7659 39.9423C20.8104 40.0058 20.8551 40.0464 20.9087 40.1004C20.9463 40.1384 20.9334 40.1245 20.9531 40.1839L21.0576 40.2687L21.0609 40.266C21.3531 40.7041 21.7988 41.1034 22.1591 41.4883C22.6841 42.0491 23.2117 42.6058 23.7951 43.1072C24.4993 43.7125 25.2806 44.2458 26.0776 44.7207C26.4248 44.9277 26.8116 45.0658 27.1518 45.2708C25.9264 46.1239 25.1534 47.2246 24.8835 48.7049C24.7447 49.4662 24.807 50.3999 25.0934 51.1243C25.2515 51.7822 25.6389 52.3076 26.0809 52.8069C26.3914 53.0826 26.7019 53.3502 27.0613 53.562C27.878 54.0433 28.9281 54.2757 29.8681 54.2612L29.8699 55.552L29.8495 55.5501L29.8329 58.651L29.8916 58.6727L36.8587 52.8974L36.9015 49.4353C36.9944 49.3702 37.0836 49.3155 37.1854 49.2653L37.185 53.1271L31.7235 57.5542L29.9657 59.0225C29.9091 59.0657 29.8711 59.0835 29.8011 59.096L29.8153 60.6037C29.815 60.7976 29.8481 61.05 29.7812 61.2304L20.7355 53.9984C20.5116 54.0608 20.182 54.4707 19.9985 54.639L19.2347 55.3037C19.1861 55.2562 19.1598 55.2304 19.1468 55.1605C19.0894 54.8515 19.1358 54.4566 19.1362 54.137L19.1227 51.4667L18.9697 51.3286L15.7278 48.6734L13.158 46.6027L11.8316 45.5539C11.7524 45.4885 11.5754 45.3786 11.5223 45.2972C11.5018 45.2658 11.4944 45.2276 11.4805 45.1928C11.674 45.062 11.8624 44.8471 12.0289 44.6815L13.0423 43.651L13.9664 42.7107L13.9636 42.5736C14.0214 42.5258 14.0767 42.4709 14.1515 42.4528C14.2074 42.4393 14.2526 42.4926 14.297 42.5225L16.7971 44.5275L20.2399 39.2561Z" fill="#839BA6"/>
<path d="M26.0801 52.8069C26.3906 53.0826 26.7011 53.3502 27.0605 53.562C27.8772 54.0433 28.9272 54.2757 29.8672 54.2612L29.869 55.552L29.8487 55.5501C28.9981 55.3491 28.3095 54.9959 27.6097 54.4771C27.0543 54.0652 26.4031 53.4166 26.0801 52.8069Z" fill="#696F73"/>
<path d="M13.9639 42.5736C14.0217 42.5258 14.077 42.4708 14.1518 42.4528C14.2077 42.4392 14.2529 42.4926 14.2973 42.5225L16.7974 44.5275L20.8907 47.8322L22.1315 48.8303C22.2746 48.9479 22.4881 49.0828 22.594 49.231L22.5773 52.999L29.7489 58.7279C29.8158 58.6794 29.7888 58.7061 29.8332 58.651L29.8919 58.6727L36.859 52.8974L36.9018 49.4353C36.9947 49.3702 37.0839 49.3154 37.1857 49.2652L37.1853 53.1271L31.7238 57.5542L29.966 59.0224C29.9094 59.0657 29.8713 59.0834 29.8014 59.096L22.2274 53.044C22.2085 53.0255 22.1784 53.013 22.1715 52.9874C22.1562 52.9313 22.171 52.8122 22.1708 52.7507L22.1689 52.1092L22.1604 49.2578L21.8697 49.0046L13.9667 42.7107L13.9639 42.5736Z" fill="#2786B2"/>
<path d="M20.7486 49.6395C20.8843 49.6258 21.0194 49.5218 21.1326 49.452L21.8696 49.0046L22.1603 49.2578L22.1688 52.1093L22.1706 52.7507C22.1709 52.8122 22.1561 52.9313 22.1714 52.9874C22.1783 53.013 22.2084 53.0255 22.2273 53.044L29.8013 59.096L29.8155 60.6037C29.8152 60.7976 29.8483 61.0499 29.7813 61.2304L20.7357 53.9984C20.7172 53.9688 20.7052 53.9544 20.6983 53.9163C20.6505 53.6504 20.6948 53.2918 20.6941 53.0179L20.6905 50.5621L20.6885 50.0101C20.6873 49.9488 20.6638 49.8141 20.6789 49.7638C20.6925 49.7182 20.7254 49.6809 20.7486 49.6395Z" fill="#D3DADF"/>
<path d="M13.9664 42.7107L21.8694 49.0046L21.1325 49.452C21.0192 49.5218 20.8841 49.6258 20.7485 49.6395C20.7252 49.6809 20.6924 49.7182 20.6787 49.7638C20.6636 49.8141 20.6871 49.9488 20.6883 50.0101L20.6903 50.5621L20.694 53.0179C20.6946 53.2918 20.6504 53.6504 20.6981 53.9163C20.705 53.9544 20.717 53.9688 20.7355 53.9984C20.5116 54.0608 20.182 54.4707 19.9985 54.639L19.2347 55.3037C19.1861 55.2562 19.1598 55.2304 19.1468 55.1605C19.0894 54.8515 19.1358 54.4565 19.1362 54.137L19.1227 51.4667L18.9697 51.3286L15.7278 48.6734L13.158 46.6026L11.8316 45.5539C11.7524 45.4885 11.5754 45.3786 11.5223 45.2972C11.5018 45.2658 11.4944 45.2276 11.4805 45.1928C11.674 45.062 11.8624 44.847 12.0289 44.6814L13.0423 43.651L13.9664 42.7107Z" fill="#949A9E"/>
<path d="M13.9661 42.7107L21.8691 49.0046L21.1321 49.452C21.0189 49.5218 20.8838 49.6258 20.7481 49.6395C20.7249 49.6809 20.692 49.7182 20.6784 49.7638C20.6633 49.8141 20.6868 49.9488 20.688 50.0101L20.69 50.5621L20.6936 53.0179C20.6943 53.2918 20.65 53.6504 20.6978 53.9163C20.7047 53.9544 20.7167 53.9688 20.7352 53.9984C20.5112 54.0608 20.1817 54.4707 19.9982 54.639L19.2343 55.3037C19.1858 55.2562 19.1595 55.2304 19.1465 55.1605C19.0891 54.8515 19.1355 54.4565 19.1359 54.137L19.1224 51.4667L18.9694 51.3286C19.2743 50.91 19.7384 50.5302 20.1223 50.1777C20.2675 50.0444 20.4534 49.9121 20.5686 49.7528L20.5193 49.6919C20.2161 49.4981 19.9464 49.2358 19.6703 49.0053L18.5607 48.1211L13.042 43.651L13.9661 42.7107Z" fill="#AFB8BF"/>
<path d="M40.8145 24.3499C41.0334 24.4866 41.2289 24.6578 41.4359 24.8116L42.7846 25.8257L44.0396 26.7616C44.3491 26.9848 44.8531 27.2753 45.0776 27.5772L45.0891 27.6353L45.0856 42.5849L37.1853 49.2653C37.0835 49.3155 36.9943 49.3703 36.9014 49.4354L36.8586 52.8974L29.8915 58.6727L29.8328 58.6511L29.8495 55.5501L29.8698 55.5521L29.868 54.2612C28.928 54.2757 27.8779 54.0433 27.0613 53.562C26.7018 53.3502 26.3913 53.0826 26.0808 52.807C25.6388 52.3077 25.2514 51.7822 25.0933 51.1243C24.8069 50.3999 24.7446 49.4662 24.8834 48.7049C25.1533 47.2246 25.9263 46.1239 27.1517 45.2708L27.5893 45.0701L27.6163 45.0511C27.9072 44.8555 28.27 44.6903 28.6063 44.5926L28.8698 45.5068C29.334 45.3271 29.8775 45.3521 30.3637 45.3929C30.5275 45.1639 30.5463 44.8282 30.7292 44.6096C30.7918 44.4318 30.8108 44.2406 30.8392 44.0547C31.4278 43.9704 32.0024 43.9014 32.5814 43.757C34.8381 43.1942 36.9355 41.8829 38.4637 40.1344C39.9261 38.4613 40.8479 36.3891 41.0853 34.1757C41.1702 33.3833 41.1468 32.5959 41.0907 31.8027C40.9466 30.3561 40.5691 29.0382 39.8876 27.7487C39.6863 27.3679 39.4592 26.9529 39.1797 26.6244L38.5624 25.8307L38.5957 25.834C38.6525 25.8558 38.6995 25.8985 38.7321 25.9484C38.7853 26.0299 38.8401 26.0905 38.9099 26.1587L38.9464 26.1039L38.9306 26.016L38.8916 25.9576C38.8132 25.8283 38.7049 25.7446 38.5992 25.6376L38.6348 25.5716L39.1996 26.2037C39.3901 26.0973 39.5607 25.804 39.7033 25.6376C40.0643 25.2163 40.4844 24.8118 40.7917 24.3505L40.8145 24.3499Z" fill="#465E76"/>
<path d="M33.805 46.6843C34.9039 47.6534 35.3911 48.8516 35.4868 50.2983C35.5696 51.5526 35.1929 52.8329 34.3629 53.7827C33.4277 54.8528 31.8043 55.5171 30.4047 55.5819C30.2379 55.5897 30.0309 55.5977 29.87 55.552L29.8682 54.2612C30.6529 54.2184 31.3648 54.0696 32.0556 53.6792C33.2533 53.0024 34.0926 52.0088 34.4556 50.6742C34.8394 49.2625 34.5224 47.9236 33.805 46.6843Z" fill="#2B425A"/>
<path d="M40.8142 24.3499C41.033 24.4866 41.2285 24.6578 41.4355 24.8116L42.7843 25.8257L44.0392 26.7616C44.3487 26.9848 44.8527 27.2753 45.0772 27.5772L45.0887 27.6353C44.9757 27.6896 42.5471 30.2297 42.4885 30.385C42.2076 30.6039 41.9597 30.9215 41.7141 31.1817C41.1604 29.3502 40.4248 27.692 39.1992 26.2037C39.3898 26.0973 39.5603 25.804 39.7029 25.6376C40.0639 25.2163 40.4841 24.8118 40.7914 24.3505L40.8142 24.3499Z" fill="#839BA6"/>
<path d="M41.0909 31.8026L41.1411 31.7677C41.2839 31.665 41.5929 31.2251 41.7268 31.1971L42.0327 32.5236C42.079 33.0876 42.1861 33.6411 42.1939 34.2101C42.229 36.7865 41.2917 39.2803 39.6285 41.2425C38.1403 42.998 36.172 44.214 33.9729 44.8668C33.6387 44.966 33.3026 45.0423 32.96 45.1054C32.7416 45.1455 32.5079 45.1662 32.2976 45.2371C31.8189 44.9485 31.2784 44.7198 30.7295 44.6096C30.792 44.4317 30.811 44.2405 30.8395 44.0546C31.4281 43.9703 32.0026 43.9013 32.5817 43.757C34.8384 43.1942 36.9357 41.8828 38.4639 40.1344C39.9264 38.4612 40.8482 36.389 41.0855 34.1756C41.1704 33.3832 41.147 32.5958 41.0909 31.8026Z" fill="#2B425A"/>
<path d="M30.3637 45.3929C30.5275 45.1638 30.5463 44.8282 30.7292 44.6096C31.2781 44.7198 31.8186 44.9486 32.2973 45.2371C32.9102 45.6401 33.3998 46.0652 33.8048 46.6843C34.5222 47.9236 34.8392 49.2626 34.4554 50.6743C34.0924 52.0089 33.2531 53.0025 32.0554 53.6793C31.3646 54.0696 30.6526 54.2185 29.868 54.2612C28.928 54.2757 27.8779 54.0433 27.0613 53.562C26.7018 53.3502 26.3913 53.0826 26.0808 52.8069C25.6388 52.3077 25.2514 51.7822 25.0933 51.1243C24.8069 50.3999 24.7446 49.4662 24.8834 48.7049C25.1533 47.2246 25.9263 46.1239 27.1517 45.2708L27.5893 45.0701L27.6163 45.0511C27.9072 44.8555 28.27 44.6902 28.6063 44.5926L28.8698 45.5068C29.334 45.3271 29.8775 45.3521 30.3637 45.3929Z" fill="#BF3C25"/>
<path d="M26.7603 49.5878C26.6882 48.7839 26.9667 47.9919 27.4822 47.3768C27.9577 46.8095 28.7258 46.3508 29.4741 46.2954C30.3876 46.2278 31.126 46.5021 31.8202 47.0828C31.2935 48.0039 30.5827 48.8191 29.7495 49.474C29.2037 49.903 28.5451 50.0788 27.858 49.9926C27.5179 49.9499 27.2042 49.8343 26.9082 49.665C26.8584 49.6364 26.8127 49.6108 26.7603 49.5878Z" fill="#FEFEFE"/>
<path d="M31.8207 47.0828C32.4232 47.7432 32.781 48.5143 32.7427 49.4247C32.7094 50.2161 32.3434 50.9912 31.7554 51.5234C31.2071 52.0197 30.4049 52.3209 29.6636 52.2811C28.8261 52.2362 28.0931 51.921 27.5326 51.29C27.138 50.8457 26.7681 50.1944 26.7607 49.5878C26.8132 49.6108 26.8589 49.6364 26.9086 49.665C27.2047 49.8343 27.5184 49.9499 27.8585 49.9926C28.5455 50.0788 29.2042 49.903 29.75 49.474C30.5832 48.8191 31.294 48.0039 31.8207 47.0828Z" fill="#CDC7E3"/>
<path d="M30.3637 45.3929C30.5275 45.1638 30.5463 44.8282 30.7292 44.6096C31.2781 44.7198 31.8186 44.9486 32.2973 45.2371C32.9102 45.6401 33.3998 46.0652 33.8048 46.6843C34.5222 47.9236 34.8392 49.2626 34.4554 50.6743C34.0924 52.0089 33.2531 53.0025 32.0554 53.6793C31.3646 54.0696 30.6526 54.2185 29.868 54.2612C28.928 54.2757 27.8779 54.0433 27.0613 53.562C26.7018 53.3502 26.3913 53.0826 26.0808 52.8069C25.6388 52.3077 25.2514 51.7822 25.0933 51.1243C24.8069 50.3999 24.7446 49.4662 24.8834 48.7049C25.1533 47.2246 25.9263 46.1239 27.1517 45.2708L27.5893 45.0701L27.6163 45.0511C27.9072 44.8555 28.27 44.6902 28.6063 44.5926L28.8698 45.5068L28.7522 45.5269C28.4027 45.611 28.0366 45.7709 27.7305 45.959C26.8452 46.5031 26.2186 47.5102 25.989 48.5139C25.7615 49.5075 25.9568 50.5569 26.5063 51.4117C27.091 52.3212 28.0124 52.9335 29.0656 53.1509C30.0594 53.356 31.2475 53.1483 32.0891 52.5742C32.9108 52.0137 33.479 51.1003 33.647 50.1235C33.7183 49.7099 33.7546 49.2785 33.696 48.8607L33.6863 48.7969C33.589 48.1201 33.3481 47.5453 32.9512 46.9866C32.7281 46.6725 32.411 46.3373 32.0905 46.1212C31.6651 45.8343 31.2191 45.5937 30.7174 45.4689L30.3637 45.3929Z" fill="#F17908"/>
<path d="M28.6061 44.5926L28.8697 45.5068L28.7521 45.5269C28.5623 45.4026 28.4094 45.3077 28.2013 45.2129C28.0066 45.1241 27.8256 45.0884 27.6162 45.0511C27.9071 44.8555 28.2698 44.6902 28.6061 44.5926Z" fill="#E94511"/>
<path d="M27.5893 45.0701L27.5621 45.1037C27.3147 45.3996 26.9905 45.6278 26.7229 45.9066C26.0296 46.629 25.5858 47.6286 25.323 48.5846C25.168 49.149 25.1011 49.8365 25.0926 50.4244C25.0893 50.658 25.1081 50.8908 25.0933 51.1243C24.8069 50.3999 24.7446 49.4662 24.8834 48.7049C25.1533 47.2246 25.9263 46.1239 27.1517 45.2708L27.5893 45.0701Z" fill="url(#paint0_linear_190_55649)"/>
<path d="M19.9736 6.97062L20.666 6.98796L20.8798 7.00917L20.9111 6.95599C20.9383 6.99966 20.9916 7.11589 21.0361 7.13139L21.7323 7.12189L21.7481 7.12832L21.9752 7.17762L23.1632 9.61472C23.2476 9.79766 23.3801 10.0022 23.4393 10.1915C23.2263 10.2133 23.1896 10.2249 23.045 10.396C22.9595 10.4971 22.9126 10.608 22.8762 10.7334L23.1512 11.2868L28.8769 11.2898L29.8347 11.2889L30.5931 11.2926L30.574 11.3583C30.7615 11.4534 30.918 11.6212 31.0779 11.7565C31.6863 12.2713 32.2592 12.7867 32.7257 13.437C33.0629 13.7859 33.4375 14.0732 33.8264 14.362C34.0225 14.5075 34.2486 14.6433 34.4252 14.8111L35.0588 15.2648C35.4387 15.5664 35.8644 15.974 36.2939 16.1939C36.529 16.4038 36.8359 16.5671 37.0884 16.7646L40.6621 19.3683L42.0552 20.4286L46.371 23.7718C46.6484 23.9786 47.7354 24.8997 47.9859 24.9051L48.0108 24.9415C47.7182 25.1148 47.4597 25.4225 47.2138 25.6615C46.8635 26.0024 46.4629 26.3375 46.1682 26.7273C46.2682 26.7893 46.3604 26.8378 46.3926 26.9605C46.4767 27.2808 46.4183 27.7707 46.418 28.1109L46.4096 30.8206L46.4022 32.6764C46.4008 32.981 46.428 33.3209 46.3782 33.6201L46.3646 27.1095L46.2976 27.0544C46.2477 27.0181 46.2159 27.0082 46.1867 26.9503L46.1726 26.9156L46.1131 26.8985L46.0233 26.9502L41.4219 23.4879C41.2236 23.721 40.9391 24.0746 40.8146 24.3498L40.7918 24.3504C40.6835 24.2261 40.5176 24.1307 40.3837 24.0339L39.7627 23.5687L38.2564 22.4296L33.4377 18.8489L31.7554 17.6132L28.1578 21.3342C27.6332 21.4199 27.1147 21.5074 26.6034 21.6555C24.2585 22.3347 22.0025 23.8574 20.5726 25.8443C19.0341 27.9819 18.234 30.263 18.2742 32.9044C18.2836 33.5244 18.3125 34.1998 18.4412 34.808L18.4692 34.9116C18.5302 35.3517 18.6394 35.7798 18.7567 36.2078C18.8138 36.4161 18.8732 36.6727 18.9905 36.8546C19.3212 37.7317 19.7622 38.4578 20.2399 39.256L16.7971 44.5274L14.297 42.5224C14.2526 42.4925 14.2074 42.4392 14.1515 42.4527C14.0767 42.4708 14.0214 42.5257 13.9636 42.5736L13.9664 42.7107L13.0423 43.6509L12.0289 44.6814C11.8624 44.847 11.674 45.062 11.4805 45.1927C11.4274 45.0427 11.4533 44.8209 11.4528 44.661L11.4507 43.4479L11.4472 40.4893C11.4467 39.9789 11.3942 39.3979 11.4789 38.8957C11.5479 38.6543 11.4929 38.266 11.4925 38.0098L11.4936 35.9894L11.4913 35.0457L11.5088 31.5612L11.5073 31.5162L11.4947 27.614L11.4898 25.4501C11.49 25.2701 11.4443 24.8347 11.5188 24.6775C11.5385 24.6358 11.5759 24.6053 11.6045 24.5691C11.8361 24.5203 12.0394 24.3426 12.2279 24.2054L13.1974 23.4824L17.0938 20.6377L18.8676 19.322L23.203 16.1158C23.431 16.0108 23.6826 15.7614 23.8854 15.6043C24.0726 15.4767 24.2593 15.3533 24.4276 15.2009L19.9736 6.97062Z" fill="#DDE1E1"/>
<path d="M21.0361 7.13146L21.7322 7.12195L21.748 7.12838L21.9752 7.17768L23.1632 9.61479C23.2476 9.79772 23.3801 10.0022 23.4393 10.1916C23.2263 10.2133 23.1896 10.225 23.045 10.396C22.9595 10.4972 22.9126 10.608 22.8762 10.7335L21.0361 7.13146Z" fill="#BF3C25"/>
<path d="M23.1514 11.2868L28.8771 11.2898L28.8882 11.3624C28.1284 12.0701 27.1765 12.7212 26.6243 13.6152C26.1989 14.0606 25.5371 14.4951 25.0049 14.8025L23.7247 12.4361C23.5307 12.064 23.2985 11.6783 23.1514 11.2868Z" fill="#FEFEFE"/>
<path d="M13.9639 42.5736C13.8728 41.868 13.9327 41.0838 13.9311 40.3712L13.9245 36.0087L13.9225 29.4128C13.9239 28.3528 13.8652 27.2565 13.9336 26.2014L29.6943 14.3826C29.9185 14.446 30.1994 14.6962 30.3938 14.8331L32.7667 16.6014L42.0189 23.5455L44.9777 25.801C45.3533 26.0882 45.7279 26.4441 46.1219 26.6979L46.1685 26.7273C46.2685 26.7893 46.3607 26.8379 46.3929 26.9605C46.477 27.2808 46.4186 27.7707 46.4183 28.111L46.4099 30.8206L46.4025 32.6764C46.4011 32.981 46.4283 33.3209 46.3785 33.6201L46.3649 27.1095L46.2979 27.0544C46.248 27.0181 46.2162 27.0082 46.187 26.9504L46.1729 26.9156L46.1134 26.8985L46.0236 26.9502L41.4222 23.4879L29.7491 14.8207L14.274 26.4354L14.2973 42.5225C14.2529 42.4926 14.2077 42.4392 14.1518 42.4528C14.077 42.4708 14.0217 42.5258 13.9639 42.5736Z" fill="#839BA6"/>
<path d="M14.2968 42.5225L14.2734 26.4354L29.7486 14.8207L41.4216 23.4879C41.2233 23.7211 40.9388 24.0746 40.8144 24.3498L40.7916 24.3505C40.6832 24.2262 40.5173 24.1307 40.3835 24.0339L39.7624 23.5688L38.2561 22.4296L33.4375 18.8489L31.7551 17.6133L28.1575 21.3342C27.6329 21.4199 27.1145 21.5074 26.6031 21.6555C24.2583 22.3347 22.0023 23.8574 20.5723 25.8443C19.0338 27.9819 18.2337 30.263 18.2739 32.9044C18.2834 33.5244 18.3122 34.1999 18.4409 34.808L18.4689 34.9117C18.5299 35.3518 18.6391 35.7798 18.7564 36.2078C18.8135 36.4162 18.8729 36.6728 18.9902 36.8546C19.3209 37.7317 19.7619 38.4578 20.2396 39.2561L16.7969 44.5275L14.2968 42.5225Z" fill="url(#paint1_linear_190_55649)"/>
<path d="M18.4686 34.9116L15.3242 39.6078L15.2842 27.1355L29.7882 16.1814L31.7548 17.6132L28.1572 21.3342C27.6326 21.4199 27.1141 21.5074 26.6028 21.6555C24.2579 22.3347 22.0019 23.8574 20.5719 25.8443C19.0335 27.9819 18.2334 30.263 18.2736 32.9044C18.283 33.5244 18.3119 34.1999 18.4406 34.808L18.4686 34.9116Z" fill="#FEFEFE"/>
<path d="M31.7551 17.6133L33.4374 18.8489L38.2561 22.4296L39.7624 23.5688L40.3834 24.0339C40.5173 24.1308 40.6832 24.2262 40.7915 24.3505C40.4842 24.8118 40.0641 25.2162 39.7031 25.6376C39.5605 25.804 39.3899 26.0973 39.1994 26.2037L38.6346 25.5716L38.599 25.6375C38.7047 25.7445 38.813 25.8283 38.8914 25.9575L38.9304 26.016L38.9462 26.1038L38.9097 26.1587C38.8399 26.0905 38.7851 26.0299 38.7319 25.9484C38.6993 25.8985 38.6523 25.8557 38.5955 25.8339L38.5622 25.8306L39.1795 26.6244C39.459 26.9529 39.6861 27.3679 39.8874 27.7487C40.5689 29.0382 40.9464 30.3561 41.0905 31.8027C41.1466 32.5958 41.17 33.3832 41.0851 34.1756C40.8477 36.389 39.9259 38.4612 38.4635 40.1344C36.9353 41.8829 34.8379 43.1942 32.5812 43.757C32.0022 43.9014 31.4276 43.9703 30.839 44.0547C30.8106 44.2405 30.7916 44.4317 30.729 44.6096C30.5461 44.8282 30.5273 45.1638 30.3635 45.3928C29.8773 45.3521 29.3338 45.3271 28.8696 45.5068L28.6061 44.5926C28.2698 44.6902 27.907 44.8555 27.6161 45.051L27.5891 45.0701L27.1515 45.2708C26.8113 45.0658 26.4245 44.9276 26.0773 44.7207C25.2803 44.2458 24.499 43.7125 23.7948 43.1072C23.2114 42.6057 22.6838 42.0491 22.1588 41.4883C21.7985 41.1034 21.3528 40.7041 21.0606 40.266L21.0573 40.2687L20.9528 40.1839C20.9331 40.1245 20.946 40.1384 20.9084 40.1004C20.8548 40.0464 20.8101 40.0057 20.7656 39.9423C20.5989 39.705 20.3996 39.507 20.2396 39.2561C19.7619 38.4579 19.3209 37.7318 18.9902 36.8546C18.8729 36.6728 18.8135 36.4162 18.7564 36.2079C18.6391 35.7798 18.5299 35.3518 18.4689 34.9117L18.4409 34.808C18.3122 34.1999 18.2833 33.5244 18.2739 32.9044C18.2337 30.263 19.0338 27.982 20.5723 25.8443C22.0022 23.8574 24.2582 22.3348 26.6031 21.6555C27.1144 21.5074 27.6329 21.4199 28.1575 21.3342L31.7551 17.6133Z" fill="url(#paint2_linear_190_55649)"/>
<path d="M28.5586 44.0612L30.8395 44.0547C30.8111 44.2405 30.7921 44.4317 30.7295 44.6096C30.5466 44.8282 30.5278 45.1638 30.3639 45.3928C29.8778 45.3521 29.3343 45.3271 28.8701 45.5068L28.6066 44.5926L28.5586 44.0612Z" fill="#F2A814"/>
<path d="M21.0605 40.266L21.1206 40.3083C21.3416 40.4685 21.5366 40.7117 21.7297 40.906C21.9476 41.1253 22.1939 41.3269 22.4356 41.5191C22.9159 41.901 23.45 42.2285 23.9819 42.5328C25.4076 43.3487 26.9143 43.906 28.5581 44.0613L28.6061 44.5926C28.2697 44.6902 27.907 44.8555 27.6161 45.0511L27.5891 45.0701L27.1515 45.2708C26.8112 45.0658 26.4245 44.9277 26.0773 44.7207C25.2803 44.2458 24.499 43.7125 23.7948 43.1072C23.2114 42.6058 22.6838 42.0491 22.1588 41.4883C21.7985 41.1034 21.3528 40.7041 21.0605 40.266Z" fill="#465E76"/>
<path d="M31.7558 17.6133L33.4381 18.8489L38.2568 22.4296L39.7631 23.5688L40.3842 24.0339C40.518 24.1308 40.6839 24.2262 40.7922 24.3505C40.485 24.8118 40.0648 25.2162 39.7038 25.6376C39.5612 25.804 39.3906 26.0973 39.2001 26.2037L38.6354 25.5716C38.6147 25.4884 38.4282 25.3153 38.3655 25.2459C37.7175 24.5291 36.9944 23.8855 36.208 23.3228C33.9246 21.6889 30.9476 20.8667 28.1582 21.3342L31.7558 17.6133Z" fill="#D3DADF"/>
<path d="M20.3244 32.2574C20.3881 31.7085 20.4345 31.1617 20.5552 30.6205C20.7811 29.6069 21.2486 28.6438 21.7998 27.769C23.0933 25.7163 25.2348 24.2301 27.5997 23.6979C29.4999 23.2703 31.5779 23.3841 33.3713 24.1759C34.0005 24.4537 34.5592 24.8079 35.1378 25.1747C36.5343 26.2935 37.6291 27.4999 38.3903 29.1373C38.0517 29.0512 37.5728 28.8537 37.3098 28.6197C37.1109 28.4429 36.9701 28.166 36.8145 27.9507C36.5985 27.6518 36.3435 27.3606 36.0786 27.1032C34.4703 25.5404 32.1839 24.4903 29.9211 24.5274L29.829 24.4289C29.8041 24.3541 29.8025 24.3608 29.7489 24.3126L29.6587 24.4383C28.9919 24.4827 28.3656 24.6389 27.7317 24.8451C26.1344 25.365 24.6391 26.2569 23.5285 27.531C23.0514 28.0784 22.6571 28.6739 22.3246 29.3188C22.1906 29.5785 22.0885 29.8911 21.923 30.1279L21.8435 30.1999L21.9048 30.2705C22.2005 30.6358 22.6914 30.9285 23.0561 31.2401L25.8928 33.6821C25.8978 33.8653 25.8696 34.033 25.8378 34.2122C25.5378 33.8268 25.0753 33.4951 24.7061 33.1764L23.3163 31.9351L22.4199 31.064C22.2279 30.8718 22.0411 30.6559 21.8147 30.5047C21.5905 31.4837 21.428 32.4859 21.4353 33.4934C21.4471 35.0984 21.9348 36.9037 22.7963 38.2631C23.1137 38.7638 23.4961 39.2105 23.9046 39.6381C24.0783 39.82 24.3205 40.0077 24.4563 40.2155C24.005 39.9727 23.551 39.5532 23.1867 39.194C21.5963 37.6254 20.5635 35.758 20.35 33.517C20.3105 33.1034 20.3273 32.6732 20.3244 32.2574Z" fill="#2786B2"/>
<path d="M29.9209 24.5274C32.1836 24.4903 34.47 25.5404 36.0784 27.1032C36.3433 27.3606 36.5983 27.6517 36.8143 27.9507C36.9698 28.166 37.1107 28.4429 37.3095 28.6197C37.5726 28.8537 38.0515 29.0512 38.3901 29.1373C38.6605 29.6836 38.772 30.2688 39.0064 30.8204L39.1864 31.6713L39.1386 31.7549C39.1228 31.6947 39.1158 31.6511 39.1111 31.5896C39.1068 31.5323 39.0925 31.4789 39.0746 31.4247C38.8896 31.5005 38.6058 31.7282 38.4747 31.8831C38.5547 32.3891 38.6491 32.9052 38.6598 33.4182C38.6966 35.1594 38.1034 36.7765 37.0865 38.1755C36.7646 38.6183 36.4111 39.0341 36.0154 39.4131C35.8531 39.5686 35.6715 39.7508 35.4744 39.861L35.1695 35.0957L38.4263 31.8724C38.3254 31.7511 38.2771 31.4953 38.2294 31.3422L37.912 30.4636C37.8653 30.3474 37.8435 30.2067 37.7346 30.1335C37.6092 30.0649 37.3813 30.0621 37.2387 30.044L35.9607 29.9019L32.999 29.5738C32.7149 29.5426 32.3452 29.5649 32.0792 29.4704L29.9209 24.5274Z" fill="#20BFF2"/>
<path d="M24.4557 40.2155C24.32 40.0077 24.0778 39.82 23.904 39.6381C23.4956 39.2105 23.1132 38.7638 22.7958 38.2631C21.9342 36.9037 21.4466 35.0985 21.4348 33.4934C21.4275 32.486 21.5899 31.4837 21.8142 30.5047C22.0405 30.6559 22.2273 30.8718 22.4194 31.064L23.3158 31.9351L24.7055 33.1764C25.0748 33.4951 25.5373 33.8269 25.8372 34.2122L25.1858 39.6942C25.3434 39.6536 25.629 39.4083 25.7591 39.3015L26.0411 39.1397L25.9117 40.2386C25.8802 40.453 25.8699 40.6671 25.7664 40.8613C25.8606 40.8482 25.9758 40.7343 26.0579 40.6795L26.731 40.259C27.8889 39.5677 29.0378 38.8681 30.2516 38.2773L34.2774 40.6926C34.0173 40.8651 33.7226 40.9951 33.441 41.1286C32.1602 41.7353 30.556 42.0896 29.1403 41.9177C27.9244 41.7699 26.7662 41.4782 25.6632 40.9337C25.3028 40.7798 24.7213 40.5086 24.4557 40.2155Z" fill="#20BFF2"/>
<path d="M19.5117 36.5895C19.513 36.5834 19.5168 36.5773 19.5156 36.5712C19.4642 36.3037 19.2739 35.9824 19.1797 35.7153C18.9195 34.9767 18.7419 34.1996 18.6716 33.4194C18.4224 30.6562 19.4559 27.7425 21.2213 25.6267C22.848 23.6769 25.2259 22.2807 27.7083 21.7627C28.1745 21.6654 28.6621 21.6222 29.1361 21.5807C29.6208 21.5382 30.125 21.5598 30.6085 21.6015C32.8329 21.7933 34.7425 22.6572 36.5275 23.972C36.8598 24.2168 37.1694 24.4935 37.4866 24.7574C37.5663 24.9097 37.8028 25.0646 37.8319 25.2078L37.7038 25.3359C37.6619 25.413 37.5941 25.4519 37.5575 25.5188L37.5394 25.5735C37.507 25.6352 37.4192 25.699 37.3561 25.7202C37.1474 25.5138 36.9433 25.2856 36.7251 25.0909C36.6575 25.0306 36.5701 25.0193 36.4962 24.9714C36.3542 24.8794 36.2421 24.7596 36.0926 24.6702L36.0566 24.6491C33.9324 23.0121 31.141 22.2352 28.472 22.5861C25.6558 22.9564 23.1962 24.3716 21.4738 26.6339C19.9628 28.6185 19.3548 30.9659 19.5424 33.4318L19.717 34.552C20.2966 37.124 22.0104 39.3964 24.2409 40.7811C26.5142 42.1924 29.2878 42.8422 31.9268 42.2173C34.4181 41.6276 36.6745 39.9362 38.0056 37.7611C38.8983 36.3021 39.3705 34.4492 39.3005 32.744C39.286 32.3906 39.2697 32.0155 39.1869 31.6713L39.0069 30.8204L39.055 30.797C39.0473 30.7439 39.039 30.696 39.0222 30.6448L38.4071 28.9829L38.5248 28.76L38.5956 28.7716L38.6343 28.7018C38.73 28.6651 38.8108 28.5972 38.908 28.5595C38.9813 28.531 38.9913 28.494 39.0366 28.4315C39.1663 28.5359 39.3502 29.0361 39.4027 29.2122L39.4682 29.3951C39.5544 29.5858 39.6099 29.8 39.6778 29.9986C39.6977 30.0567 39.7154 30.1086 39.7269 30.1693L39.7349 30.2164L39.8079 30.2356C40.5783 32.7281 40.1805 35.3815 38.9747 37.6565C37.6451 40.1648 35.3025 41.9671 32.6071 42.795C29.8584 43.6393 27.0188 43.1498 24.52 41.8128C22.7312 40.8556 21.2591 39.5163 20.1737 37.8017C19.9268 37.4114 19.7559 36.9736 19.5117 36.5895Z" fill="url(#paint3_linear_190_55649)"/>
<path d="M32.0791 29.4704C32.3451 29.5649 32.7147 29.5426 32.9988 29.5739L35.9605 29.9019L37.2386 30.044C37.3812 30.0621 37.6091 30.0649 37.7344 30.1335C37.8434 30.2067 37.8651 30.3474 37.9119 30.4637L38.2293 31.3422C38.2769 31.4953 38.3252 31.7511 38.4262 31.8724L35.1693 35.0958L35.4743 39.861L34.2776 40.6926L30.2518 38.2773C29.038 38.8681 27.889 39.5677 26.7312 40.259L26.0581 40.6795C25.9759 40.7343 25.8608 40.8482 25.7666 40.8613C25.87 40.6671 25.8803 40.453 25.9119 40.2385L26.0413 39.1397C26.9291 38.5654 27.7919 37.899 28.6328 37.2569C29.0209 36.9606 29.4219 36.5823 29.8457 36.3443L29.8462 34.0185C29.8442 33.7494 29.7803 33.2597 29.8739 33.0176C29.8654 32.9813 29.8752 32.9463 29.8803 32.9098C29.9258 32.6593 30.2767 32.288 30.4329 32.0664L31.497 30.4661C31.6958 30.1624 31.9739 29.8181 32.0791 29.4704Z" fill="#2786B2"/>
<path d="M29.8741 33.0177C29.9867 33.0755 30.0667 33.0962 30.1921 33.1072C30.4975 33.134 30.8176 33.2132 31.1206 33.2696L32.9854 33.6465C33.2072 33.6955 33.5166 33.7174 33.7129 33.8183L34.4342 39.862L34.4103 39.8649L29.8459 36.3443L29.8464 34.0185C29.8444 33.7494 29.7805 33.2597 29.8741 33.0177Z" fill="#F2A814"/>
<path d="M32.0787 29.4704C32.3446 29.5649 32.7143 29.5426 32.9984 29.5739L35.9601 29.9019L37.2382 30.044C37.3808 30.0621 37.6086 30.0649 37.734 30.1335L37.7134 30.1534L34.9132 32.7104C34.5309 33.0564 34.0368 33.4243 33.7122 33.8183C33.516 33.7173 33.2066 33.6955 32.9847 33.6465L31.1199 33.2696C30.8169 33.2132 30.4969 33.134 30.1915 33.1072C30.066 33.0961 29.986 33.0755 29.8734 33.0176C29.865 32.9813 29.8748 32.9463 29.8798 32.9098C29.9254 32.6593 30.2763 32.288 30.4325 32.0664L31.4965 30.4661C31.6954 30.1624 31.9734 29.8181 32.0787 29.4704Z" fill="#FBDD62"/>
<path d="M29.8798 32.9097L34.5564 31.246L36.4879 30.5548C36.7973 30.4369 37.1039 30.2757 37.4158 30.1732C37.5182 30.1396 37.6076 30.1425 37.7134 30.1534L34.9132 32.7104C34.5309 33.0564 34.0368 33.4242 33.7122 33.8183C33.516 33.7173 33.2066 33.6955 32.9847 33.6465L31.1199 33.2695C30.8169 33.2131 30.4969 33.134 30.1915 33.1072C30.066 33.0961 29.986 33.0755 29.8734 33.0176C29.865 32.9813 29.8748 32.9463 29.8798 32.9097Z" fill="#D27318"/>
<path d="M29.659 24.4383L29.7491 24.3126C29.8028 24.3608 29.8044 24.3541 29.8292 24.4289L29.9214 24.5274L32.0797 29.4704C31.9745 29.8181 31.6965 30.1624 31.4976 30.4661L30.4336 32.0664C30.2773 32.288 29.9264 32.6593 29.8809 32.9097C29.8758 32.9463 29.866 32.9813 29.8745 33.0176C29.7809 33.2597 29.8448 33.7494 29.8468 34.0185L29.8463 36.3442C29.4225 36.5823 29.0215 36.9606 28.6335 37.2569C27.7925 37.899 26.9297 38.5653 26.0419 39.1397L25.7599 39.3015C25.6298 39.4083 25.3442 39.6536 25.1866 39.6942L25.838 34.2122C25.8698 34.033 25.8981 33.8653 25.8931 33.6821L23.0563 31.2401C22.6916 30.9285 22.2008 30.6357 21.905 30.2705L21.8438 30.1999L21.9233 30.1279C22.0887 29.8911 22.1909 29.5785 22.3248 29.3188C22.6573 28.6739 23.0517 28.0784 23.5288 27.531C24.6393 26.2569 26.1346 25.365 27.732 24.8451C28.3659 24.6388 28.9922 24.4827 29.659 24.4383Z" fill="#20BFF2"/>
<path d="M29.6585 24.4383L29.7487 24.3126C29.8023 24.3608 29.8039 24.3541 29.8288 24.4289L29.9209 24.5274L32.0793 29.4704C31.974 29.8181 31.696 30.1624 31.4971 30.4661L30.4331 32.0664C30.2769 32.288 29.926 32.6593 29.8804 32.9097L29.8139 32.9094L29.8042 32.8824L29.7756 32.8708C29.7537 32.7607 29.6578 32.6548 29.5943 32.5619L29.1448 31.9188L27.4609 29.4733L29.6585 24.4383Z" fill="#FBDD62"/>
<path d="M29.8283 24.4289L29.9205 24.5274L32.0788 29.4704C31.9735 29.8181 31.6955 30.1624 31.4966 30.4661L30.4326 32.0664C30.2764 32.288 29.9255 32.6593 29.8799 32.9097L29.8134 32.9094L29.8037 32.8824L29.8283 24.4289Z" fill="#D27318"/>
<path d="M27.4614 29.4733L29.1453 31.9188L29.5947 32.5619C29.6583 32.6549 29.7541 32.7608 29.7761 32.8708L29.8047 32.8824L29.8143 32.9095L29.8809 32.9098C29.8758 32.9463 29.866 32.9813 29.8745 33.0177C29.7809 33.2597 29.8448 33.7494 29.8468 34.0185L29.8463 36.3443C29.4225 36.5824 29.0215 36.9606 28.6335 37.2569C27.7925 37.899 26.9297 38.5654 26.0419 39.1397L25.7599 39.3015C25.6298 39.4083 25.3442 39.6536 25.1866 39.6942L25.838 34.2122C25.8698 34.0331 25.8981 33.8653 25.8931 33.6822L23.0563 31.2401C22.6916 30.9285 22.2008 30.6358 21.905 30.2706L21.8438 30.1999L21.9233 30.1279C23.1701 29.9107 24.458 29.8009 25.7182 29.6736L26.7855 29.5602C27.0083 29.5378 27.2447 29.5297 27.4614 29.4733Z" fill="#F2A814"/>
<path d="M29.8142 32.9095L29.8807 32.9097C29.8757 32.9463 29.8659 32.9813 29.8744 33.0176C29.7807 33.2597 29.8447 33.7494 29.8466 34.0185L29.8462 36.3442C29.4224 36.5823 29.0214 36.9606 28.6333 37.2569C27.7924 37.899 26.9296 38.5654 26.0417 39.1397L25.7598 39.3015C25.7612 39.2152 25.7677 39.1508 25.8131 39.0751C26.0049 38.7547 26.2535 38.4586 26.4575 38.1432L28.6867 34.6145C29.0177 34.0885 29.4059 33.574 29.7088 33.0349L29.8142 32.9095Z" fill="#F17908"/>
<path d="M27.4614 29.4733L29.1453 31.9188L29.5947 32.5619C29.6583 32.6549 29.7541 32.7608 29.7761 32.8708C29.5588 32.8297 29.3499 32.7364 29.1417 32.6626L28.0211 32.264L23.3007 30.6722C22.9345 30.5553 22.5758 30.4006 22.2068 30.296C22.1033 30.2666 22.012 30.2523 21.905 30.2706L21.8438 30.1999L21.9233 30.1279C23.1701 29.9107 24.458 29.8009 25.7182 29.6736L26.7855 29.5602C27.0083 29.5378 27.2447 29.5297 27.4614 29.4733Z" fill="#FEFEFE"/>
<g opacity="0.8">
<mask id="mask0_190_55649" style="mask-type:alpha" maskUnits="userSpaceOnUse" x="0" y="0" width="60" height="64">
<path d="M20.9111 6.95606C21.1451 6.92527 21.4149 6.917 21.6421 6.98824L21.7323 7.12195L21.0362 7.13146C20.9917 7.11595 20.9383 6.99973 20.9111 6.95606Z" fill="#D3DADF"/>
<path d="M23.2023 16.1159L22.0893 14.2179L19.9199 10.446L18.5765 8.11973L18.1225 7.3297C18.0622 7.22086 17.9856 7.10909 17.9717 6.98467L18.1883 6.98416L18.2178 6.9917C18.3392 7.02059 18.6032 6.98365 18.6913 7.02198C18.7201 7.03448 18.8434 7.24134 18.8703 7.28361C19.438 8.17905 19.8822 9.17528 20.3909 10.1071C21.1689 11.5324 22.0379 12.9186 22.9482 14.2626C23.2485 14.7059 23.5015 15.2292 23.8848 15.6044C23.6819 15.7614 23.4303 16.0109 23.2023 16.1159Z" fill="#949A9E"/>
<path d="M18.1895 6.9841L19.9741 6.97064L24.4281 15.2009C24.2598 15.3533 24.0731 15.4768 23.8859 15.6043C23.5026 15.2292 23.2496 14.7058 22.9493 14.2626C22.039 12.9185 21.17 11.5323 20.392 10.107C19.8833 9.17522 19.4391 8.17899 18.8714 7.28355C18.8445 7.24128 18.7212 7.03442 18.6924 7.02192C18.6043 6.98359 18.3403 7.02053 18.2189 6.99163L18.1895 6.9841Z" fill="#AFB8BF"/>
<path d="M48.1075 25.2937L59.4267 18.8542L59.4583 18.8808L59.3804 19.0121C59.0025 19.219 58.7058 19.5649 58.4052 19.8683C58.1265 19.9689 57.8778 20.2055 57.64 20.3794L55.6123 21.9299L54.0218 23.1142L51.1011 25.3613L49.1483 26.9208C48.8011 27.2061 48.4656 27.5511 48.0871 27.794L48.0863 26.2859C48.0871 25.9591 48.0671 25.618 48.1075 25.2937Z" fill="#39F3C4"/>
<path d="M40.6621 19.3683L55.8546 9.99371L55.8773 10.0303L55.8165 10.1654C55.6886 10.282 55.5965 10.4894 55.5006 10.6363C55.2841 10.968 55.067 11.3097 54.8218 11.6202C54.7789 11.6746 54.6854 11.8176 54.6302 11.8495C54.4509 11.8984 54.34 12.0237 54.1971 12.1345L53.5999 12.5598L51.0979 14.3293L44.9809 18.4658L42.0552 20.4287L40.6621 19.3683Z" fill="#39F3C4"/>
<path d="M38.1898 7.12922L38.3793 7.11971C38.4132 7.0808 38.4638 7.01256 38.5134 6.9912C38.5816 6.9618 38.7029 6.97855 38.7764 6.97913L39.4882 6.98645L40.7977 6.97606C40.9907 6.97738 41.217 6.95426 41.401 7.013C41.3892 7.24984 40.2156 9.18861 40.0152 9.54943L36.2936 16.1939C35.8641 15.974 35.4383 15.5664 35.0584 15.2649L34.4248 14.8111L36.2765 11.3479L36.2078 11.2862L36.2949 11.2639C36.5106 10.9608 36.6619 10.5353 36.8335 10.2004L38.0264 7.89505C38.115 7.7206 38.366 7.35019 38.3565 7.16931L38.1824 7.15234L38.1898 7.12922Z" fill="#949A9E"/>
<path d="M38.1898 7.12922L38.3793 7.11971C38.4132 7.0808 38.4638 7.01256 38.5134 6.9912C38.5816 6.9618 38.7029 6.97855 38.7764 6.97913L39.4882 6.98645L40.7977 6.97606C40.9907 6.97738 41.217 6.95426 41.401 7.013L39.6121 6.99288L35.0584 15.2649L34.4248 14.8111L36.2765 11.3479L36.2078 11.2862L36.2949 11.2639C36.5106 10.9608 36.6619 10.5353 36.8335 10.2004L38.0264 7.89505C38.115 7.7206 38.366 7.35019 38.3565 7.16931L38.1824 7.15234L38.1898 7.12922Z" fill="#D3DADF"/>
<path d="M29.9894 0.973175L36.563 6.08337L37.5224 6.85321C37.5991 6.91663 37.7493 7.08216 37.8319 7.11844C37.8969 7.14696 38.1098 7.12677 38.191 7.12926L38.1836 7.15237L37.7621 7.15991L29.9466 7.15515C29.963 6.28605 29.8526 1.24811 29.9894 0.973175Z" fill="#AFB8BF"/>
<path d="M3.81676 10.3861L3.68262 9.95636L18.8679 19.322L17.0941 20.6377L15.248 19.3385L11.9904 16.9848L9.00461 14.8191L6.46928 12.8584L5.48322 12.0235L4.71842 11.3166C4.56043 11.163 4.4589 10.9813 4.25139 10.8887C4.14709 10.7536 3.9749 10.4439 3.81676 10.3861Z" fill="#39F3C4"/>
<path d="M20.7352 53.9983L29.7809 61.2303L29.7894 61.2653C29.8489 61.896 29.8046 62.5676 29.8048 63.2036C29.8049 63.3689 29.7597 63.6999 29.8344 63.8446L29.7666 63.8637C29.3857 63.6331 29.0386 63.2858 28.7009 62.995L27.5778 62.0797L21.6579 57.2524C20.8576 56.6036 20.0736 55.8991 19.2344 55.3037L19.9982 54.6389C20.1817 54.4707 20.5113 54.0607 20.7352 53.9983Z" fill="#949A9E"/>
<path d="M21.6416 6.98819C21.7831 6.98007 21.8407 6.95396 21.9544 6.87043L27.5264 2.66922L28.8106 1.70223C29.1521 1.44054 29.515 1.14555 29.8939 0.941895L29.9881 0.973127C29.8513 1.24806 29.9616 6.286 29.9453 7.1551L21.7476 7.12833L21.7318 7.1219L21.6416 6.98819Z" fill="#DDE1E1"/>
<path d="M4.25098 10.8886C4.45849 10.9812 4.56001 11.163 4.71801 11.3165L5.4828 12.0235L6.46887 12.8584L9.0042 14.8191L11.99 16.9848L15.2476 19.3385L17.0937 20.6377L13.1973 23.4824L11.0008 20.4067L7.22401 15.0837L5.05235 12.0587C4.78735 11.683 4.447 11.3037 4.25098 10.8886Z" fill="#21C6A4"/>
<path d="M42.0557 20.4287L44.9814 18.4659L51.0984 14.3293L53.6004 12.5599L54.1976 12.1346C54.3404 12.0237 54.4513 11.8984 54.6306 11.8496C54.5025 12.0908 54.3317 12.3041 54.1754 12.5272L53.4595 13.5514L50.7415 17.3303L47.6194 21.8282C47.1933 22.461 46.8264 23.1642 46.3714 23.7718L42.0557 20.4287Z" fill="#21C6A4"/>
<path d="M3.81641 10.3861C3.97454 10.444 4.14673 10.7537 4.25103 10.8887C4.44706 11.3038 4.7874 11.683 5.0524 12.0587L7.22406 15.0837L11.0009 20.4068L13.1973 23.4825L12.2279 24.2055C12.0393 24.3427 11.836 24.5203 11.6044 24.5692C11.5151 24.4649 11.3411 24.4055 11.219 24.3461C11.0021 24.2405 10.7203 24.0508 10.4878 24.0032L9.59256 23.4565L7.27761 22.008C7.13863 21.9209 6.77978 21.7572 6.68601 21.644C6.65463 21.6062 6.62574 21.3901 6.61236 21.3336L6.36644 20.3093L3.81641 10.3861Z" fill="#0A957A"/>
<path d="M54.6303 11.8496C54.6856 11.8177 54.779 11.6747 54.8219 11.6202C55.0672 11.3097 55.2843 10.968 55.5007 10.6363C55.5966 10.4894 55.6888 10.2821 55.8166 10.1654L53.4055 19.3044L52.8712 21.4896C52.8451 21.5871 52.8054 21.8573 52.7557 21.9273C52.6952 22.0127 52.4417 22.1316 52.3418 22.1901L49.3999 23.9591C48.9265 24.2536 48.4018 24.5338 47.986 24.9051C47.7355 24.8997 46.6485 23.9786 46.3711 23.7718C46.8261 23.1641 47.193 22.461 47.6191 21.8282L50.7412 17.3303L53.4592 13.5513L54.1751 12.5272C54.3313 12.3041 54.5022 12.0908 54.6303 11.8496Z" fill="#0A957A"/>
<path d="M11.4785 38.8958L8.10495 37.4548C7.85647 37.3432 7.54276 37.2629 7.31784 37.1118C7.08443 36.955 6.87275 36.6478 6.68887 36.435L5.52872 35.0879L1.78906 30.8033L1.82527 30.7547L2.0281 30.7818L2.31614 30.794L5.18897 30.8842C5.50495 30.8946 5.95099 30.9594 6.25198 30.8927L10.5525 31.4371C10.7449 31.4698 11.3529 31.6392 11.5084 31.5613L11.4909 35.0457L11.4932 35.9894L11.4921 38.0098C11.4925 38.2661 11.5475 38.6544 11.4785 38.8958Z" fill="#0A957A"/>
<path d="M2.02832 30.7817L2.31636 30.794L5.18919 30.8842C5.50517 30.8945 5.95121 30.9594 6.2522 30.8926L10.5527 31.437C10.7451 31.4697 11.3531 31.6391 11.5087 31.5612L11.4911 35.0457L11.4934 35.9894L8.00555 34.0753L5.65446 32.8058L3.79922 31.7498L2.51217 31.0587C2.34445 30.9696 2.15808 30.9226 2.02832 30.7817Z" fill="#21C6A4"/>
<path d="M2.31641 30.794L5.18923 30.8843C5.50522 30.8946 5.95125 30.9595 6.25224 30.8927L10.5528 31.4371C10.7451 31.4698 11.3531 31.6392 11.5087 31.5613L11.4911 35.0458C11.4173 34.355 11.4821 33.5976 11.4842 32.8996C11.3421 32.8064 11.0632 32.7849 10.8933 32.7453L8.4999 32.2328L3.86934 31.2113C3.35118 31.0888 2.83317 30.8889 2.31641 30.794Z" fill="#39F3C4"/>
<path d="M48.4802 31.0403L53.2557 30.7494L56.7525 30.751L57.4175 30.7455L57.6524 30.7427L57.6639 30.8034L52.8775 36.1892L52.0848 37.0619C51.9723 37.1864 51.826 37.3867 51.68 37.4615C51.5275 37.5396 51.3257 37.5797 51.1609 37.627L50.3079 37.8644L48.0611 38.4727L48.0581 35.7513L48.0527 33.2428L48.0663 31.1066L48.0804 31.0971L48.1254 31.0434L48.4802 31.0403Z" fill="#0A957A"/>
<path d="M48.4802 31.0403L53.2557 30.7494L56.7525 30.751L57.4175 30.7454C57.1551 30.961 56.8005 31.1027 56.5017 31.2656L53.4666 32.8437L49.5199 35.0019L48.5084 35.5522C48.3682 35.6215 48.2101 35.7176 48.0581 35.7513L48.0527 33.2427L48.0663 31.1065L48.0804 31.0971L48.1254 31.0434L48.4802 31.0403Z" fill="#21C6A4"/>
<path d="M48.4802 31.0402L53.2557 30.7493L56.7525 30.7509C56.3388 30.9418 55.8167 31.0225 55.3719 31.1423L52.9346 31.8144L49.6866 32.756L48.0527 33.2427L48.0663 31.1065L48.0804 31.0971L48.1254 31.0434L48.4802 31.0402Z" fill="#39F3C4"/>
<path d="M58.4048 19.8683C58.7054 19.5649 59.0021 19.219 59.38 19.0122L53.2559 30.7494L48.4803 31.0403L48.1255 31.0434L48.0805 31.0971L48.0664 31.1066L48.0867 27.7941C48.4652 27.5511 48.8007 27.2061 49.1478 26.9209L51.1007 25.3613L54.0214 23.1142L55.6119 21.93L57.6396 20.3794C57.8774 20.2055 58.126 19.9689 58.4048 19.8683Z" fill="#0A957A"/>
<path d="M58.4048 19.8683L48.4803 31.0403L48.1255 31.0434L48.0805 31.0971L48.0664 31.1065L48.0867 27.794C48.4652 27.5511 48.8007 27.2061 49.1478 26.9208L51.1007 25.3613L54.0214 23.1142L55.6119 21.93L57.6396 20.3794C57.8774 20.2055 58.126 19.9689 58.4048 19.8683Z" fill="#21C6A4"/>
<path d="M46.4075 43.5444C46.5971 43.5632 46.7854 43.8056 46.9192 43.9328C47.2703 44.2664 47.6394 44.6793 48.0526 44.934C48.0143 45.1114 47.6907 45.3381 47.55 45.4601L45.9309 46.8235L42.271 49.8905C41.6444 50.4195 40.9517 50.934 40.3876 51.5271C40.3224 51.5956 40.2367 51.6816 40.2048 51.7721C40.1627 51.8917 40.1918 52.1859 40.191 52.3261L40.1921 54.5821C40.1923 54.6906 40.2283 55.0504 40.193 55.13C40.1183 55.2982 39.6983 55.5785 39.5458 55.7037L38.0124 56.9994L32.7702 61.3816L30.7791 63.0564C30.4717 63.316 30.1723 63.6268 29.835 63.8446C29.7603 63.7 29.8055 63.3689 29.8054 63.2036C29.8052 62.5676 29.8495 61.896 29.79 61.2653L38.7668 53.8901L38.7314 50.0944L38.7258 50.037C39.0669 49.8041 39.3712 49.509 39.6811 49.2366L41.0498 48.0556L46.4075 43.5444Z" fill="#696F73"/>
<path d="M6.25213 30.8927L0.0566406 18.9782L0.0699529 18.946L0.211853 19.0008L9.07602 23.3655L9.96268 23.7935C10.118 23.8717 10.3127 24.0073 10.4876 24.0032C10.7201 24.0508 11.0018 24.2404 11.2188 24.3461C11.3409 24.4055 11.5149 24.4649 11.6042 24.5692C11.5756 24.6053 11.5382 24.6359 11.5185 24.6775C11.4441 24.8347 11.4897 25.2702 11.4895 25.4501L11.4945 27.614L11.5071 31.5162L11.5086 31.5613C11.353 31.6392 10.745 31.4698 10.5527 31.4371L6.25213 30.8927Z" fill="#21C6A4"/>
<path d="M0.211914 19.0008L9.07608 23.3655L9.96274 23.7935C10.118 23.8717 10.3127 24.0073 10.4876 24.0032C10.7201 24.0508 11.0019 24.2405 11.2188 24.3461C11.3409 24.4055 11.5149 24.4649 11.6042 24.5692C11.5756 24.6053 11.5383 24.6359 11.5186 24.6775C11.4441 24.8348 11.4898 25.2702 11.4896 25.4501L11.4945 27.614L5.22831 22.7744L2.86318 21.0786L1.61563 20.1734C1.39466 20.0113 1.17172 19.804 0.920172 19.6953C0.67565 19.5239 0.344452 19.269 0.211914 19.0008Z" fill="#39F3C4"/>
<path d="M6.25213 30.8927L0.0566406 18.9782L0.0699529 18.946L0.211853 19.0008C0.344391 19.269 0.67559 19.5239 0.920112 19.6952C0.958366 19.8325 1.02039 19.8981 1.11482 20.0024L5.25605 24.2935L7.35061 26.5485L10.3028 29.7632L11.124 30.6872C11.2033 30.7732 11.4292 30.9663 11.4727 31.0684C11.5245 31.1897 11.4365 31.3813 11.5071 31.5162L11.5086 31.5613C11.353 31.6392 10.745 31.4698 10.5527 31.4371L6.25213 30.8927Z" fill="#0A957A"/>
<path d="M21.748 7.12836L29.9457 7.15513L37.7613 7.15988L38.1827 7.15235L38.3568 7.16932C38.3663 7.3502 38.1153 7.72061 38.0268 7.89506L36.8339 10.2004C36.6623 10.5354 36.511 10.9608 36.2953 11.2639L36.2081 11.2862L36.2768 11.3479L34.4252 14.8111C34.2486 14.6434 34.0225 14.5075 33.8264 14.362C33.4375 14.0732 33.0628 13.786 32.7257 13.4371C32.2592 12.7867 31.6863 12.2713 31.0779 11.7565C30.918 11.6213 30.7615 11.4534 30.574 11.3583L30.593 11.2926L29.8347 11.289L28.8769 11.2898L23.1512 11.2868L22.8762 10.7334C22.9126 10.608 22.9595 10.4972 23.045 10.396C23.1896 10.2249 23.2263 10.2133 23.4393 10.1916C23.38 10.0022 23.2476 9.79769 23.1632 9.61476L21.9752 7.17766L21.748 7.12836Z" fill="#983123"/>
<path d="M30.5923 11.2926L36.2074 11.2862L36.2761 11.3479L34.4244 14.8111C34.2479 14.6434 34.0218 14.5075 33.8257 14.362C33.4368 14.0732 33.0621 13.786 32.725 13.4371C32.2585 12.7867 31.6856 12.2713 31.0772 11.7565C30.9173 11.6212 30.7608 11.4534 30.5732 11.3583L30.5923 11.2926Z" fill="#FEFEFE"/>
<path d="M29.9456 7.15512L37.7612 7.15988C37.5967 7.65996 37.2605 8.16013 37.0048 8.62167C36.7126 9.14926 36.4468 9.7086 36.0959 10.2005L31.7813 10.1947L30.5507 10.1924C30.3566 10.1931 30.1415 10.1765 29.95 10.205L29.9277 10.1977C29.9976 9.9853 29.9478 9.59683 29.9478 9.36621L29.9456 7.15512Z" fill="#BF3C25"/>
<path d="M21.748 7.12836L29.9457 7.15513L29.9479 9.36621C29.9479 9.59684 29.9977 9.98531 29.9279 10.1977L23.4393 10.1916C23.38 10.0022 23.2476 9.79769 23.1632 9.61476L21.9752 7.17766L21.748 7.12836Z" fill="#EF765E"/>
<path d="M41.422 23.4879L46.0234 26.9502L46.1132 26.8985L46.1726 26.9156L46.1868 26.9504C46.216 27.0082 46.2478 27.0181 46.2977 27.0544L46.3647 27.1095L46.3783 33.6201C46.4281 33.3209 46.4009 32.981 46.4022 32.6764L46.4097 30.8206L46.4181 28.1109C46.4184 27.7707 46.4768 27.2808 46.3927 26.9605C46.3605 26.8379 46.2683 26.7893 46.1683 26.7273C46.463 26.3376 46.8636 26.0024 47.2139 25.6616C47.4598 25.4225 47.7183 25.1148 48.0109 24.9415C48.0603 25.0628 48.0993 25.1624 48.1078 25.2937C48.0675 25.618 48.0874 25.9591 48.0866 26.2858L48.0875 27.794L48.0672 31.1065L48.0536 33.2427L48.059 35.7513L48.062 38.4726L48.0678 43.0495L48.0718 44.2696C48.0724 44.4825 48.0965 44.7259 48.0524 44.934C47.6392 44.6793 47.2701 44.2664 46.919 43.9328C46.7852 43.8056 46.5969 43.5632 46.4072 43.5444L41.0496 48.0556L39.6809 49.2365C39.3709 49.5089 39.0667 49.8041 38.7256 50.037L38.7312 50.0944L38.7666 53.8901L29.7898 61.2653L29.7812 61.2303C29.8482 61.0499 29.8151 60.7976 29.8154 60.6036L29.8012 59.096C29.8711 59.0834 29.9092 59.0656 29.9658 59.0224L31.7236 57.5542L37.1851 53.127L37.1855 49.2652L45.0858 42.5848L45.0893 27.6352L45.0777 27.5771C44.8533 27.2753 44.3493 26.9847 44.0398 26.7616L42.7848 25.8256L41.4361 24.8115C41.2291 24.6577 41.0336 24.4865 40.8147 24.3498C40.9392 24.0746 41.2237 23.721 41.422 23.4879Z" fill="#AFB8BF"/>
<path d="M46.168 26.7274C46.4627 26.3376 46.8633 26.0024 47.2136 25.6616C47.4595 25.4225 47.718 25.1148 48.0106 24.9415C48.06 25.0628 48.0991 25.1624 48.1075 25.2937C48.0672 25.618 48.0871 25.9591 48.0863 26.2859L48.0872 27.794L48.0669 31.1065L48.0533 33.2427L48.0588 35.7513L48.0617 38.4726L48.0675 43.0496L48.0716 44.2696C48.0721 44.4825 48.0962 44.7259 48.0521 44.934C47.6389 44.6793 47.2698 44.2664 46.9187 43.9328C46.7849 43.8056 46.5966 43.5632 46.4069 43.5444L46.378 33.6201C46.4278 33.3209 46.4006 32.981 46.402 32.6764L46.4094 30.8206L46.4178 28.111C46.4181 27.7707 46.4765 27.2808 46.3924 26.9605C46.3602 26.8379 46.268 26.7893 46.168 26.7274Z" fill="#949A9E"/>
<path d="M20.2399 39.2561C20.3999 39.507 20.5992 39.705 20.7659 39.9423C20.8104 40.0058 20.8551 40.0464 20.9087 40.1004C20.9463 40.1384 20.9334 40.1245 20.9531 40.1839L21.0576 40.2687L21.0609 40.266C21.3531 40.7041 21.7988 41.1034 22.1591 41.4883C22.6841 42.0491 23.2117 42.6058 23.7951 43.1072C24.4993 43.7125 25.2806 44.2458 26.0776 44.7207C26.4248 44.9277 26.8116 45.0658 27.1518 45.2708C25.9264 46.1239 25.1534 47.2246 24.8835 48.7049C24.7447 49.4662 24.807 50.3999 25.0934 51.1243C25.2515 51.7822 25.6389 52.3076 26.0809 52.8069C26.3914 53.0826 26.7019 53.3502 27.0613 53.562C27.878 54.0433 28.9281 54.2757 29.8681 54.2612L29.8699 55.552L29.8495 55.5501L29.8329 58.651L29.8916 58.6727L36.8587 52.8974L36.9015 49.4353C36.9944 49.3702 37.0836 49.3155 37.1854 49.2653L37.185 53.1271L31.7235 57.5542L29.9657 59.0225C29.9091 59.0657 29.8711 59.0835 29.8011 59.096L29.8153 60.6037C29.815 60.7976 29.8481 61.05 29.7812 61.2304L20.7355 53.9984C20.5116 54.0608 20.182 54.4707 19.9985 54.639L19.2347 55.3037C19.1861 55.2562 19.1598 55.2304 19.1468 55.1605C19.0894 54.8515 19.1358 54.4566 19.1362 54.137L19.1227 51.4667L18.9697 51.3286L15.7278 48.6734L13.158 46.6027L11.8316 45.5539C11.7524 45.4885 11.5754 45.3786 11.5223 45.2972C11.5018 45.2658 11.4944 45.2276 11.4805 45.1928C11.674 45.062 11.8624 44.8471 12.0289 44.6815L13.0423 43.651L13.9664 42.7107L13.9636 42.5736C14.0214 42.5258 14.0767 42.4709 14.1515 42.4528C14.2074 42.4393 14.2526 42.4926 14.297 42.5225L16.7971 44.5275L20.2399 39.2561Z" fill="#839BA6"/>
<path d="M26.0801 52.8069C26.3906 53.0826 26.7011 53.3502 27.0605 53.562C27.8772 54.0433 28.9272 54.2757 29.8672 54.2612L29.869 55.552L29.8487 55.5501C28.9981 55.3491 28.3095 54.9959 27.6097 54.4771C27.0543 54.0652 26.4031 53.4166 26.0801 52.8069Z" fill="#696F73"/>
<path d="M13.9639 42.5736C14.0217 42.5258 14.077 42.4708 14.1518 42.4528C14.2077 42.4392 14.2529 42.4926 14.2973 42.5225L16.7974 44.5275L20.8907 47.8322L22.1315 48.8303C22.2746 48.9479 22.4881 49.0828 22.594 49.231L22.5773 52.999L29.7489 58.7279C29.8158 58.6794 29.7888 58.7061 29.8332 58.651L29.8919 58.6727L36.859 52.8974L36.9018 49.4353C36.9947 49.3702 37.0839 49.3154 37.1857 49.2652L37.1853 53.1271L31.7238 57.5542L29.966 59.0224C29.9094 59.0657 29.8713 59.0834 29.8014 59.096L22.2274 53.044C22.2085 53.0255 22.1784 53.013 22.1715 52.9874C22.1562 52.9313 22.171 52.8122 22.1708 52.7507L22.1689 52.1092L22.1604 49.2578L21.8697 49.0046L13.9667 42.7107L13.9639 42.5736Z" fill="#2786B2"/>
<path d="M20.7486 49.6395C20.8843 49.6258 21.0194 49.5218 21.1326 49.452L21.8696 49.0046L22.1603 49.2578L22.1688 52.1093L22.1706 52.7507C22.1709 52.8122 22.1561 52.9313 22.1714 52.9874C22.1783 53.013 22.2084 53.0255 22.2273 53.044L29.8013 59.096L29.8155 60.6037C29.8152 60.7976 29.8483 61.0499 29.7813 61.2304L20.7357 53.9984C20.7172 53.9688 20.7052 53.9544 20.6983 53.9163C20.6505 53.6504 20.6948 53.2918 20.6941 53.0179L20.6905 50.5621L20.6885 50.0101C20.6873 49.9488 20.6638 49.8141 20.6789 49.7638C20.6925 49.7182 20.7254 49.6809 20.7486 49.6395Z" fill="#D3DADF"/>
<path d="M13.9664 42.7107L21.8694 49.0046L21.1325 49.452C21.0192 49.5218 20.8841 49.6258 20.7485 49.6395C20.7252 49.6809 20.6924 49.7182 20.6787 49.7638C20.6636 49.8141 20.6871 49.9488 20.6883 50.0101L20.6903 50.5621L20.694 53.0179C20.6946 53.2918 20.6504 53.6504 20.6981 53.9163C20.705 53.9544 20.717 53.9688 20.7355 53.9984C20.5116 54.0608 20.182 54.4707 19.9985 54.639L19.2347 55.3037C19.1861 55.2562 19.1598 55.2304 19.1468 55.1605C19.0894 54.8515 19.1358 54.4565 19.1362 54.137L19.1227 51.4667L18.9697 51.3286L15.7278 48.6734L13.158 46.6026L11.8316 45.5539C11.7524 45.4885 11.5754 45.3786 11.5223 45.2972C11.5018 45.2658 11.4944 45.2276 11.4805 45.1928C11.674 45.062 11.8624 44.847 12.0289 44.6814L13.0423 43.651L13.9664 42.7107Z" fill="#949A9E"/>
<path d="M13.9661 42.7107L21.8691 49.0046L21.1321 49.452C21.0189 49.5218 20.8838 49.6258 20.7481 49.6395C20.7249 49.6809 20.692 49.7182 20.6784 49.7638C20.6633 49.8141 20.6868 49.9488 20.688 50.0101L20.69 50.5621L20.6936 53.0179C20.6943 53.2918 20.65 53.6504 20.6978 53.9163C20.7047 53.9544 20.7167 53.9688 20.7352 53.9984C20.5112 54.0608 20.1817 54.4707 19.9982 54.639L19.2343 55.3037C19.1858 55.2562 19.1595 55.2304 19.1465 55.1605C19.0891 54.8515 19.1355 54.4565 19.1359 54.137L19.1224 51.4667L18.9694 51.3286C19.2743 50.91 19.7384 50.5302 20.1223 50.1777C20.2675 50.0444 20.4534 49.9121 20.5686 49.7528L20.5193 49.6919C20.2161 49.4981 19.9464 49.2358 19.6703 49.0053L18.5607 48.1211L13.042 43.651L13.9661 42.7107Z" fill="#AFB8BF"/>
<path d="M40.8145 24.3499C41.0334 24.4866 41.2289 24.6578 41.4359 24.8116L42.7846 25.8257L44.0396 26.7616C44.3491 26.9848 44.8531 27.2753 45.0776 27.5772L45.0891 27.6353L45.0856 42.5849L37.1853 49.2653C37.0835 49.3155 36.9943 49.3703 36.9014 49.4354L36.8586 52.8974L29.8915 58.6727L29.8328 58.6511L29.8495 55.5501L29.8698 55.5521L29.868 54.2612C28.928 54.2757 27.8779 54.0433 27.0613 53.562C26.7018 53.3502 26.3913 53.0826 26.0808 52.807C25.6388 52.3077 25.2514 51.7822 25.0933 51.1243C24.8069 50.3999 24.7446 49.4662 24.8834 48.7049C25.1533 47.2246 25.9263 46.1239 27.1517 45.2708L27.5893 45.0701L27.6163 45.0511C27.9072 44.8555 28.27 44.6903 28.6063 44.5926L28.8698 45.5068C29.334 45.3271 29.8775 45.3521 30.3637 45.3929C30.5275 45.1639 30.5463 44.8282 30.7292 44.6096C30.7918 44.4318 30.8108 44.2406 30.8392 44.0547C31.4278 43.9704 32.0024 43.9014 32.5814 43.757C34.8381 43.1942 36.9355 41.8829 38.4637 40.1344C39.9261 38.4613 40.8479 36.3891 41.0853 34.1757C41.1702 33.3833 41.1468 32.5959 41.0907 31.8027C40.9466 30.3561 40.5691 29.0382 39.8876 27.7487C39.6863 27.3679 39.4592 26.9529 39.1797 26.6244L38.5624 25.8307L38.5957 25.834C38.6525 25.8558 38.6995 25.8985 38.7321 25.9484C38.7853 26.0299 38.8401 26.0905 38.9099 26.1587L38.9464 26.1039L38.9306 26.016L38.8916 25.9576C38.8132 25.8283 38.7049 25.7446 38.5992 25.6376L38.6348 25.5716L39.1996 26.2037C39.3901 26.0973 39.5607 25.804 39.7033 25.6376C40.0643 25.2163 40.4844 24.8118 40.7917 24.3505L40.8145 24.3499Z" fill="#465E76"/>
<path d="M33.805 46.6843C34.9039 47.6534 35.3911 48.8516 35.4868 50.2983C35.5696 51.5526 35.1929 52.8329 34.3629 53.7827C33.4277 54.8528 31.8043 55.5171 30.4047 55.5819C30.2379 55.5897 30.0309 55.5977 29.87 55.552L29.8682 54.2612C30.6529 54.2184 31.3648 54.0696 32.0556 53.6792C33.2533 53.0024 34.0926 52.0088 34.4556 50.6742C34.8394 49.2625 34.5224 47.9236 33.805 46.6843Z" fill="#2B425A"/>
<path d="M40.8142 24.3499C41.033 24.4866 41.2285 24.6578 41.4355 24.8116L42.7843 25.8257L44.0392 26.7616C44.3487 26.9848 44.8527 27.2753 45.0772 27.5772L45.0887 27.6353C44.9757 27.6896 42.5471 30.2297 42.4885 30.385C42.2076 30.6039 41.9597 30.9215 41.7141 31.1817C41.1604 29.3502 40.4248 27.692 39.1992 26.2037C39.3898 26.0973 39.5603 25.804 39.7029 25.6376C40.0639 25.2163 40.4841 24.8118 40.7914 24.3505L40.8142 24.3499Z" fill="#839BA6"/>
<path d="M41.0909 31.8026L41.1411 31.7677C41.2839 31.665 41.5929 31.2251 41.7268 31.1971L42.0327 32.5236C42.079 33.0876 42.1861 33.6411 42.1939 34.2101C42.229 36.7865 41.2917 39.2803 39.6285 41.2425C38.1403 42.998 36.172 44.214 33.9729 44.8668C33.6387 44.966 33.3026 45.0423 32.96 45.1054C32.7416 45.1455 32.5079 45.1662 32.2976 45.2371C31.8189 44.9485 31.2784 44.7198 30.7295 44.6096C30.792 44.4317 30.811 44.2405 30.8395 44.0546C31.4281 43.9703 32.0026 43.9013 32.5817 43.757C34.8384 43.1942 36.9357 41.8828 38.4639 40.1344C39.9264 38.4612 40.8482 36.389 41.0855 34.1756C41.1704 33.3832 41.147 32.5958 41.0909 31.8026Z" fill="#2B425A"/>
<path d="M30.3637 45.3929C30.5275 45.1638 30.5463 44.8282 30.7292 44.6096C31.2781 44.7198 31.8186 44.9486 32.2973 45.2371C32.9102 45.6401 33.3998 46.0652 33.8048 46.6843C34.5222 47.9236 34.8392 49.2626 34.4554 50.6743C34.0924 52.0089 33.2531 53.0025 32.0554 53.6793C31.3646 54.0696 30.6526 54.2185 29.868 54.2612C28.928 54.2757 27.8779 54.0433 27.0613 53.562C26.7018 53.3502 26.3913 53.0826 26.0808 52.8069C25.6388 52.3077 25.2514 51.7822 25.0933 51.1243C24.8069 50.3999 24.7446 49.4662 24.8834 48.7049C25.1533 47.2246 25.9263 46.1239 27.1517 45.2708L27.5893 45.0701L27.6163 45.0511C27.9072 44.8555 28.27 44.6902 28.6063 44.5926L28.8698 45.5068C29.334 45.3271 29.8775 45.3521 30.3637 45.3929Z" fill="#BF3C25"/>
<path d="M26.7603 49.5878C26.6882 48.7839 26.9667 47.9919 27.4822 47.3768C27.9577 46.8095 28.7258 46.3508 29.4741 46.2954C30.3876 46.2278 31.126 46.5021 31.8202 47.0828C31.2935 48.0039 30.5827 48.8191 29.7495 49.474C29.2037 49.903 28.5451 50.0788 27.858 49.9926C27.5179 49.9499 27.2042 49.8343 26.9082 49.665C26.8584 49.6364 26.8127 49.6108 26.7603 49.5878Z" fill="#FEFEFE"/>
<path d="M31.8207 47.0828C32.4232 47.7432 32.781 48.5143 32.7427 49.4247C32.7094 50.2161 32.3434 50.9912 31.7554 51.5234C31.2071 52.0197 30.4049 52.3209 29.6636 52.2811C28.8261 52.2362 28.0931 51.921 27.5326 51.29C27.138 50.8457 26.7681 50.1944 26.7607 49.5878C26.8132 49.6108 26.8589 49.6364 26.9086 49.665C27.2047 49.8343 27.5184 49.9499 27.8585 49.9926C28.5455 50.0788 29.2042 49.903 29.75 49.474C30.5832 48.8191 31.294 48.0039 31.8207 47.0828Z" fill="#CDC7E3"/>
<path d="M30.3637 45.3929C30.5275 45.1638 30.5463 44.8282 30.7292 44.6096C31.2781 44.7198 31.8186 44.9486 32.2973 45.2371C32.9102 45.6401 33.3998 46.0652 33.8048 46.6843C34.5222 47.9236 34.8392 49.2626 34.4554 50.6743C34.0924 52.0089 33.2531 53.0025 32.0554 53.6793C31.3646 54.0696 30.6526 54.2185 29.868 54.2612C28.928 54.2757 27.8779 54.0433 27.0613 53.562C26.7018 53.3502 26.3913 53.0826 26.0808 52.8069C25.6388 52.3077 25.2514 51.7822 25.0933 51.1243C24.8069 50.3999 24.7446 49.4662 24.8834 48.7049C25.1533 47.2246 25.9263 46.1239 27.1517 45.2708L27.5893 45.0701L27.6163 45.0511C27.9072 44.8555 28.27 44.6902 28.6063 44.5926L28.8698 45.5068L28.7522 45.5269C28.4027 45.611 28.0366 45.7709 27.7305 45.959C26.8452 46.5031 26.2186 47.5102 25.989 48.5139C25.7615 49.5075 25.9568 50.5569 26.5063 51.4117C27.091 52.3212 28.0124 52.9335 29.0656 53.1509C30.0594 53.356 31.2475 53.1483 32.0891 52.5742C32.9108 52.0137 33.479 51.1003 33.647 50.1235C33.7183 49.7099 33.7546 49.2785 33.696 48.8607L33.6863 48.7969C33.589 48.1201 33.3481 47.5453 32.9512 46.9866C32.7281 46.6725 32.411 46.3373 32.0905 46.1212C31.6651 45.8343 31.2191 45.5937 30.7174 45.4689L30.3637 45.3929Z" fill="#F17908"/>
<path d="M28.6061 44.5926L28.8697 45.5068L28.7521 45.5269C28.5623 45.4026 28.4094 45.3077 28.2013 45.2129C28.0066 45.1241 27.8256 45.0884 27.6162 45.0511C27.9071 44.8555 28.2698 44.6902 28.6061 44.5926Z" fill="#E94511"/>
<path d="M27.5893 45.0701L27.5621 45.1037C27.3147 45.3996 26.9905 45.6278 26.7229 45.9066C26.0296 46.629 25.5858 47.6286 25.323 48.5846C25.168 49.149 25.1011 49.8365 25.0926 50.4244C25.0893 50.658 25.1081 50.8908 25.0933 51.1243C24.8069 50.3999 24.7446 49.4662 24.8834 48.7049C25.1533 47.2246 25.9263 46.1239 27.1517 45.2708L27.5893 45.0701Z" fill="url(#paint4_linear_190_55649)"/>
<path d="M19.9736 6.97062L20.666 6.98796L20.8798 7.00917L20.9111 6.95599C20.9383 6.99966 20.9916 7.11589 21.0361 7.13139L21.7323 7.12189L21.7481 7.12832L21.9752 7.17762L23.1632 9.61472C23.2476 9.79766 23.3801 10.0022 23.4393 10.1915C23.2263 10.2133 23.1896 10.2249 23.045 10.396C22.9595 10.4971 22.9126 10.608 22.8762 10.7334L23.1512 11.2868L28.8769 11.2898L29.8347 11.2889L30.5931 11.2926L30.574 11.3583C30.7615 11.4534 30.918 11.6212 31.0779 11.7565C31.6863 12.2713 32.2592 12.7867 32.7257 13.437C33.0629 13.7859 33.4375 14.0732 33.8264 14.362C34.0225 14.5075 34.2486 14.6433 34.4252 14.8111L35.0588 15.2648C35.4387 15.5664 35.8644 15.974 36.2939 16.1939C36.529 16.4038 36.8359 16.5671 37.0884 16.7646L40.6621 19.3683L42.0552 20.4286L46.371 23.7718C46.6484 23.9786 47.7354 24.8997 47.9859 24.9051L48.0108 24.9415C47.7182 25.1148 47.4597 25.4225 47.2138 25.6615C46.8635 26.0024 46.4629 26.3375 46.1682 26.7273C46.2682 26.7893 46.3604 26.8378 46.3926 26.9605C46.4767 27.2808 46.4183 27.7707 46.418 28.1109L46.4096 30.8206L46.4022 32.6764C46.4008 32.981 46.428 33.3209 46.3782 33.6201L46.3646 27.1095L46.2976 27.0544C46.2477 27.0181 46.2159 27.0082 46.1867 26.9503L46.1726 26.9156L46.1131 26.8985L46.0233 26.9502L41.4219 23.4879C41.2236 23.721 40.9391 24.0746 40.8146 24.3498L40.7918 24.3504C40.6835 24.2261 40.5176 24.1307 40.3837 24.0339L39.7627 23.5687L38.2564 22.4296L33.4377 18.8489L31.7554 17.6132L28.1578 21.3342C27.6332 21.4199 27.1147 21.5074 26.6034 21.6555C24.2585 22.3347 22.0025 23.8574 20.5726 25.8443C19.0341 27.9819 18.234 30.263 18.2742 32.9044C18.2836 33.5244 18.3125 34.1998 18.4412 34.808L18.4692 34.9116C18.5302 35.3517 18.6394 35.7798 18.7567 36.2078C18.8138 36.4161 18.8732 36.6727 18.9905 36.8546C19.3212 37.7317 19.7622 38.4578 20.2399 39.256L16.7971 44.5274L14.297 42.5224C14.2526 42.4925 14.2074 42.4392 14.1515 42.4527C14.0767 42.4708 14.0214 42.5257 13.9636 42.5736L13.9664 42.7107L13.0423 43.6509L12.0289 44.6814C11.8624 44.847 11.674 45.062 11.4805 45.1927C11.4274 45.0427 11.4533 44.8209 11.4528 44.661L11.4507 43.4479L11.4472 40.4893C11.4467 39.9789 11.3942 39.3979 11.4789 38.8957C11.5479 38.6543 11.4929 38.266 11.4925 38.0098L11.4936 35.9894L11.4913 35.0457L11.5088 31.5612L11.5073 31.5162L11.4947 27.614L11.4898 25.4501C11.49 25.2701 11.4443 24.8347 11.5188 24.6775C11.5385 24.6358 11.5759 24.6053 11.6045 24.5691C11.8361 24.5203 12.0394 24.3426 12.2279 24.2054L13.1974 23.4824L17.0938 20.6377L18.8676 19.322L23.203 16.1158C23.431 16.0108 23.6826 15.7614 23.8854 15.6043C24.0726 15.4767 24.2593 15.3533 24.4276 15.2009L19.9736 6.97062Z" fill="#DDE1E1"/>
<path d="M21.0361 7.13146L21.7322 7.12195L21.748 7.12838L21.9752 7.17768L23.1632 9.61479C23.2476 9.79772 23.3801 10.0022 23.4393 10.1916C23.2263 10.2133 23.1896 10.225 23.045 10.396C22.9595 10.4972 22.9126 10.608 22.8762 10.7335L21.0361 7.13146Z" fill="#BF3C25"/>
<path d="M23.1514 11.2868L28.8771 11.2898L28.8882 11.3624C28.1284 12.0701 27.1765 12.7212 26.6243 13.6152C26.1989 14.0606 25.5371 14.4951 25.0049 14.8025L23.7247 12.4361C23.5307 12.064 23.2985 11.6783 23.1514 11.2868Z" fill="#FEFEFE"/>
<path d="M13.9639 42.5736C13.8728 41.868 13.9327 41.0838 13.9311 40.3712L13.9245 36.0087L13.9225 29.4128C13.9239 28.3528 13.8652 27.2565 13.9336 26.2014L29.6943 14.3826C29.9185 14.446 30.1994 14.6962 30.3938 14.8331L32.7667 16.6014L42.0189 23.5455L44.9777 25.801C45.3533 26.0882 45.7279 26.4441 46.1219 26.6979L46.1685 26.7273C46.2685 26.7893 46.3607 26.8379 46.3929 26.9605C46.477 27.2808 46.4186 27.7707 46.4183 28.111L46.4099 30.8206L46.4025 32.6764C46.4011 32.981 46.4283 33.3209 46.3785 33.6201L46.3649 27.1095L46.2979 27.0544C46.248 27.0181 46.2162 27.0082 46.187 26.9504L46.1729 26.9156L46.1134 26.8985L46.0236 26.9502L41.4222 23.4879L29.7491 14.8207L14.274 26.4354L14.2973 42.5225C14.2529 42.4926 14.2077 42.4392 14.1518 42.4528C14.077 42.4708 14.0217 42.5258 13.9639 42.5736Z" fill="#839BA6"/>
<path d="M14.2968 42.5225L14.2734 26.4354L29.7486 14.8207L41.4216 23.4879C41.2233 23.7211 40.9388 24.0746 40.8144 24.3498L40.7916 24.3505C40.6832 24.2262 40.5173 24.1307 40.3835 24.0339L39.7624 23.5688L38.2561 22.4296L33.4375 18.8489L31.7551 17.6133L28.1575 21.3342C27.6329 21.4199 27.1145 21.5074 26.6031 21.6555C24.2583 22.3347 22.0023 23.8574 20.5723 25.8443C19.0338 27.9819 18.2337 30.263 18.2739 32.9044C18.2834 33.5244 18.3122 34.1999 18.4409 34.808L18.4689 34.9117C18.5299 35.3518 18.6391 35.7798 18.7564 36.2078C18.8135 36.4162 18.8729 36.6728 18.9902 36.8546C19.3209 37.7317 19.7619 38.4578 20.2396 39.2561L16.7969 44.5275L14.2968 42.5225Z" fill="url(#paint5_linear_190_55649)"/>
<path d="M18.4686 34.9116L15.3242 39.6078L15.2842 27.1355L29.7882 16.1814L31.7548 17.6132L28.1572 21.3342C27.6326 21.4199 27.1141 21.5074 26.6028 21.6555C24.2579 22.3347 22.0019 23.8574 20.5719 25.8443C19.0335 27.9819 18.2334 30.263 18.2736 32.9044C18.283 33.5244 18.3119 34.1999 18.4406 34.808L18.4686 34.9116Z" fill="#FEFEFE"/>
<path d="M31.7551 17.6133L33.4374 18.8489L38.2561 22.4296L39.7624 23.5688L40.3834 24.0339C40.5173 24.1308 40.6832 24.2262 40.7915 24.3505C40.4842 24.8118 40.0641 25.2162 39.7031 25.6376C39.5605 25.804 39.3899 26.0973 39.1994 26.2037L38.6346 25.5716L38.599 25.6375C38.7047 25.7445 38.813 25.8283 38.8914 25.9575L38.9304 26.016L38.9462 26.1038L38.9097 26.1587C38.8399 26.0905 38.7851 26.0299 38.7319 25.9484C38.6993 25.8985 38.6523 25.8557 38.5955 25.8339L38.5622 25.8306L39.1795 26.6244C39.459 26.9529 39.6861 27.3679 39.8874 27.7487C40.5689 29.0382 40.9464 30.3561 41.0905 31.8027C41.1466 32.5958 41.17 33.3832 41.0851 34.1756C40.8477 36.389 39.9259 38.4612 38.4635 40.1344C36.9353 41.8829 34.8379 43.1942 32.5812 43.757C32.0022 43.9014 31.4276 43.9703 30.839 44.0547C30.8106 44.2405 30.7916 44.4317 30.729 44.6096C30.5461 44.8282 30.5273 45.1638 30.3635 45.3928C29.8773 45.3521 29.3338 45.3271 28.8696 45.5068L28.6061 44.5926C28.2698 44.6902 27.907 44.8555 27.6161 45.051L27.5891 45.0701L27.1515 45.2708C26.8113 45.0658 26.4245 44.9276 26.0773 44.7207C25.2803 44.2458 24.499 43.7125 23.7948 43.1072C23.2114 42.6057 22.6838 42.0491 22.1588 41.4883C21.7985 41.1034 21.3528 40.7041 21.0606 40.266L21.0573 40.2687L20.9528 40.1839C20.9331 40.1245 20.946 40.1384 20.9084 40.1004C20.8548 40.0464 20.8101 40.0057 20.7656 39.9423C20.5989 39.705 20.3996 39.507 20.2396 39.2561C19.7619 38.4579 19.3209 37.7318 18.9902 36.8546C18.8729 36.6728 18.8135 36.4162 18.7564 36.2079C18.6391 35.7798 18.5299 35.3518 18.4689 34.9117L18.4409 34.808C18.3122 34.1999 18.2833 33.5244 18.2739 32.9044C18.2337 30.263 19.0338 27.982 20.5723 25.8443C22.0022 23.8574 24.2582 22.3348 26.6031 21.6555C27.1144 21.5074 27.6329 21.4199 28.1575 21.3342L31.7551 17.6133Z" fill="url(#paint6_linear_190_55649)"/>
<path d="M28.5586 44.0612L30.8395 44.0547C30.8111 44.2405 30.7921 44.4317 30.7295 44.6096C30.5466 44.8282 30.5278 45.1638 30.3639 45.3928C29.8778 45.3521 29.3343 45.3271 28.8701 45.5068L28.6066 44.5926L28.5586 44.0612Z" fill="#F2A814"/>
<path d="M21.0605 40.266L21.1206 40.3083C21.3416 40.4685 21.5366 40.7117 21.7297 40.906C21.9476 41.1253 22.1939 41.3269 22.4356 41.5191C22.9159 41.901 23.45 42.2285 23.9819 42.5328C25.4076 43.3487 26.9143 43.906 28.5581 44.0613L28.6061 44.5926C28.2697 44.6902 27.907 44.8555 27.6161 45.0511L27.5891 45.0701L27.1515 45.2708C26.8112 45.0658 26.4245 44.9277 26.0773 44.7207C25.2803 44.2458 24.499 43.7125 23.7948 43.1072C23.2114 42.6058 22.6838 42.0491 22.1588 41.4883C21.7985 41.1034 21.3528 40.7041 21.0605 40.266Z" fill="#465E76"/>
<path d="M31.7558 17.6133L33.4381 18.8489L38.2568 22.4296L39.7631 23.5688L40.3842 24.0339C40.518 24.1308 40.6839 24.2262 40.7922 24.3505C40.485 24.8118 40.0648 25.2162 39.7038 25.6376C39.5612 25.804 39.3906 26.0973 39.2001 26.2037L38.6354 25.5716C38.6147 25.4884 38.4282 25.3153 38.3655 25.2459C37.7175 24.5291 36.9944 23.8855 36.208 23.3228C33.9246 21.6889 30.9476 20.8667 28.1582 21.3342L31.7558 17.6133Z" fill="#D3DADF"/>
<path d="M20.3244 32.2574C20.3881 31.7085 20.4345 31.1617 20.5552 30.6205C20.7811 29.6069 21.2486 28.6438 21.7998 27.769C23.0933 25.7163 25.2348 24.2301 27.5997 23.6979C29.4999 23.2703 31.5779 23.3841 33.3713 24.1759C34.0005 24.4537 34.5592 24.8079 35.1378 25.1747C36.5343 26.2935 37.6291 27.4999 38.3903 29.1373C38.0517 29.0512 37.5728 28.8537 37.3098 28.6197C37.1109 28.4429 36.9701 28.166 36.8145 27.9507C36.5985 27.6518 36.3435 27.3606 36.0786 27.1032C34.4703 25.5404 32.1839 24.4903 29.9211 24.5274L29.829 24.4289C29.8041 24.3541 29.8025 24.3608 29.7489 24.3126L29.6587 24.4383C28.9919 24.4827 28.3656 24.6389 27.7317 24.8451C26.1344 25.365 24.6391 26.2569 23.5285 27.531C23.0514 28.0784 22.6571 28.6739 22.3246 29.3188C22.1906 29.5785 22.0885 29.8911 21.923 30.1279L21.8435 30.1999L21.9048 30.2705C22.2005 30.6358 22.6914 30.9285 23.0561 31.2401L25.8928 33.6821C25.8978 33.8653 25.8696 34.033 25.8378 34.2122C25.5378 33.8268 25.0753 33.4951 24.7061 33.1764L23.3163 31.9351L22.4199 31.064C22.2279 30.8718 22.0411 30.6559 21.8147 30.5047C21.5905 31.4837 21.428 32.4859 21.4353 33.4934C21.4471 35.0984 21.9348 36.9037 22.7963 38.2631C23.1137 38.7638 23.4961 39.2105 23.9046 39.6381C24.0783 39.82 24.3205 40.0077 24.4563 40.2155C24.005 39.9727 23.551 39.5532 23.1867 39.194C21.5963 37.6254 20.5635 35.758 20.35 33.517C20.3105 33.1034 20.3273 32.6732 20.3244 32.2574Z" fill="#2786B2"/>
<path d="M29.9209 24.5274C32.1836 24.4903 34.47 25.5404 36.0784 27.1032C36.3433 27.3606 36.5983 27.6517 36.8143 27.9507C36.9698 28.166 37.1107 28.4429 37.3095 28.6197C37.5726 28.8537 38.0515 29.0512 38.3901 29.1373C38.6605 29.6836 38.772 30.2688 39.0064 30.8204L39.1864 31.6713L39.1386 31.7549C39.1228 31.6947 39.1158 31.6511 39.1111 31.5896C39.1068 31.5323 39.0925 31.4789 39.0746 31.4247C38.8896 31.5005 38.6058 31.7282 38.4747 31.8831C38.5547 32.3891 38.6491 32.9052 38.6598 33.4182C38.6966 35.1594 38.1034 36.7765 37.0865 38.1755C36.7646 38.6183 36.4111 39.0341 36.0154 39.4131C35.8531 39.5686 35.6715 39.7508 35.4744 39.861L35.1695 35.0957L38.4263 31.8724C38.3254 31.7511 38.2771 31.4953 38.2294 31.3422L37.912 30.4636C37.8653 30.3474 37.8435 30.2067 37.7346 30.1335C37.6092 30.0649 37.3813 30.0621 37.2387 30.044L35.9607 29.9019L32.999 29.5738C32.7149 29.5426 32.3452 29.5649 32.0792 29.4704L29.9209 24.5274Z" fill="#20BFF2"/>
<path d="M24.4557 40.2155C24.32 40.0077 24.0778 39.82 23.904 39.6381C23.4956 39.2105 23.1132 38.7638 22.7958 38.2631C21.9342 36.9037 21.4466 35.0985 21.4348 33.4934C21.4275 32.486 21.5899 31.4837 21.8142 30.5047C22.0405 30.6559 22.2273 30.8718 22.4194 31.064L23.3158 31.9351L24.7055 33.1764C25.0748 33.4951 25.5373 33.8269 25.8372 34.2122L25.1858 39.6942C25.3434 39.6536 25.629 39.4083 25.7591 39.3015L26.0411 39.1397L25.9117 40.2386C25.8802 40.453 25.8699 40.6671 25.7664 40.8613C25.8606 40.8482 25.9758 40.7343 26.0579 40.6795L26.731 40.259C27.8889 39.5677 29.0378 38.8681 30.2516 38.2773L34.2774 40.6926C34.0173 40.8651 33.7226 40.9951 33.441 41.1286C32.1602 41.7353 30.556 42.0896 29.1403 41.9177C27.9244 41.7699 26.7662 41.4782 25.6632 40.9337C25.3028 40.7798 24.7213 40.5086 24.4557 40.2155Z" fill="#20BFF2"/>
<path d="M19.5117 36.5895C19.513 36.5834 19.5168 36.5773 19.5156 36.5712C19.4642 36.3037 19.2739 35.9824 19.1797 35.7153C18.9195 34.9767 18.7419 34.1996 18.6716 33.4194C18.4224 30.6562 19.4559 27.7425 21.2213 25.6267C22.848 23.6769 25.2259 22.2807 27.7083 21.7627C28.1745 21.6654 28.6621 21.6222 29.1361 21.5807C29.6208 21.5382 30.125 21.5598 30.6085 21.6015C32.8329 21.7933 34.7425 22.6572 36.5275 23.972C36.8598 24.2168 37.1694 24.4935 37.4866 24.7574C37.5663 24.9097 37.8028 25.0646 37.8319 25.2078L37.7038 25.3359C37.6619 25.413 37.5941 25.4519 37.5575 25.5188L37.5394 25.5735C37.507 25.6352 37.4192 25.699 37.3561 25.7202C37.1474 25.5138 36.9433 25.2856 36.7251 25.0909C36.6575 25.0306 36.5701 25.0193 36.4962 24.9714C36.3542 24.8794 36.2421 24.7596 36.0926 24.6702L36.0566 24.6491C33.9324 23.0121 31.141 22.2352 28.472 22.5861C25.6558 22.9564 23.1962 24.3716 21.4738 26.6339C19.9628 28.6185 19.3548 30.9659 19.5424 33.4318L19.717 34.552C20.2966 37.124 22.0104 39.3964 24.2409 40.7811C26.5142 42.1924 29.2878 42.8422 31.9268 42.2173C34.4181 41.6276 36.6745 39.9362 38.0056 37.7611C38.8983 36.3021 39.3705 34.4492 39.3005 32.744C39.286 32.3906 39.2697 32.0155 39.1869 31.6713L39.0069 30.8204L39.055 30.797C39.0473 30.7439 39.039 30.696 39.0222 30.6448L38.4071 28.9829L38.5248 28.76L38.5956 28.7716L38.6343 28.7018C38.73 28.6651 38.8108 28.5972 38.908 28.5595C38.9813 28.531 38.9913 28.494 39.0366 28.4315C39.1663 28.5359 39.3502 29.0361 39.4027 29.2122L39.4682 29.3951C39.5544 29.5858 39.6099 29.8 39.6778 29.9986C39.6977 30.0567 39.7154 30.1086 39.7269 30.1693L39.7349 30.2164L39.8079 30.2356C40.5783 32.7281 40.1805 35.3815 38.9747 37.6565C37.6451 40.1648 35.3025 41.9671 32.6071 42.795C29.8584 43.6393 27.0188 43.1498 24.52 41.8128C22.7312 40.8556 21.2591 39.5163 20.1737 37.8017C19.9268 37.4114 19.7559 36.9736 19.5117 36.5895Z" fill="url(#paint7_linear_190_55649)"/>
<path d="M32.0791 29.4704C32.3451 29.5649 32.7147 29.5426 32.9988 29.5739L35.9605 29.9019L37.2386 30.044C37.3812 30.0621 37.6091 30.0649 37.7344 30.1335C37.8434 30.2067 37.8651 30.3474 37.9119 30.4637L38.2293 31.3422C38.2769 31.4953 38.3252 31.7511 38.4262 31.8724L35.1693 35.0958L35.4743 39.861L34.2776 40.6926L30.2518 38.2773C29.038 38.8681 27.889 39.5677 26.7312 40.259L26.0581 40.6795C25.9759 40.7343 25.8608 40.8482 25.7666 40.8613C25.87 40.6671 25.8803 40.453 25.9119 40.2385L26.0413 39.1397C26.9291 38.5654 27.7919 37.899 28.6328 37.2569C29.0209 36.9606 29.4219 36.5823 29.8457 36.3443L29.8462 34.0185C29.8442 33.7494 29.7803 33.2597 29.8739 33.0176C29.8654 32.9813 29.8752 32.9463 29.8803 32.9098C29.9258 32.6593 30.2767 32.288 30.4329 32.0664L31.497 30.4661C31.6958 30.1624 31.9739 29.8181 32.0791 29.4704Z" fill="#2786B2"/>
<path d="M29.8741 33.0177C29.9867 33.0755 30.0667 33.0962 30.1921 33.1072C30.4975 33.134 30.8176 33.2132 31.1206 33.2696L32.9854 33.6465C33.2072 33.6955 33.5166 33.7174 33.7129 33.8183L34.4342 39.862L34.4103 39.8649L29.8459 36.3443L29.8464 34.0185C29.8444 33.7494 29.7805 33.2597 29.8741 33.0177Z" fill="#F2A814"/>
<path d="M32.0787 29.4704C32.3446 29.5649 32.7143 29.5426 32.9984 29.5739L35.9601 29.9019L37.2382 30.044C37.3808 30.0621 37.6086 30.0649 37.734 30.1335L37.7134 30.1534L34.9132 32.7104C34.5309 33.0564 34.0368 33.4243 33.7122 33.8183C33.516 33.7173 33.2066 33.6955 32.9847 33.6465L31.1199 33.2696C30.8169 33.2132 30.4969 33.134 30.1915 33.1072C30.066 33.0961 29.986 33.0755 29.8734 33.0176C29.865 32.9813 29.8748 32.9463 29.8798 32.9098C29.9254 32.6593 30.2763 32.288 30.4325 32.0664L31.4965 30.4661C31.6954 30.1624 31.9734 29.8181 32.0787 29.4704Z" fill="#FBDD62"/>
<path d="M29.8798 32.9097L34.5564 31.246L36.4879 30.5548C36.7973 30.4369 37.1039 30.2757 37.4158 30.1732C37.5182 30.1396 37.6076 30.1425 37.7134 30.1534L34.9132 32.7104C34.5309 33.0564 34.0368 33.4242 33.7122 33.8183C33.516 33.7173 33.2066 33.6955 32.9847 33.6465L31.1199 33.2695C30.8169 33.2131 30.4969 33.134 30.1915 33.1072C30.066 33.0961 29.986 33.0755 29.8734 33.0176C29.865 32.9813 29.8748 32.9463 29.8798 32.9097Z" fill="#D27318"/>
<path d="M29.659 24.4383L29.7491 24.3126C29.8028 24.3608 29.8044 24.3541 29.8292 24.4289L29.9214 24.5274L32.0797 29.4704C31.9745 29.8181 31.6965 30.1624 31.4976 30.4661L30.4336 32.0664C30.2773 32.288 29.9264 32.6593 29.8809 32.9097C29.8758 32.9463 29.866 32.9813 29.8745 33.0176C29.7809 33.2597 29.8448 33.7494 29.8468 34.0185L29.8463 36.3442C29.4225 36.5823 29.0215 36.9606 28.6335 37.2569C27.7925 37.899 26.9297 38.5653 26.0419 39.1397L25.7599 39.3015C25.6298 39.4083 25.3442 39.6536 25.1866 39.6942L25.838 34.2122C25.8698 34.033 25.8981 33.8653 25.8931 33.6821L23.0563 31.2401C22.6916 30.9285 22.2008 30.6357 21.905 30.2705L21.8438 30.1999L21.9233 30.1279C22.0887 29.8911 22.1909 29.5785 22.3248 29.3188C22.6573 28.6739 23.0517 28.0784 23.5288 27.531C24.6393 26.2569 26.1346 25.365 27.732 24.8451C28.3659 24.6388 28.9922 24.4827 29.659 24.4383Z" fill="#20BFF2"/>
<path d="M29.6585 24.4383L29.7487 24.3126C29.8023 24.3608 29.8039 24.3541 29.8288 24.4289L29.9209 24.5274L32.0793 29.4704C31.974 29.8181 31.696 30.1624 31.4971 30.4661L30.4331 32.0664C30.2769 32.288 29.926 32.6593 29.8804 32.9097L29.8139 32.9094L29.8042 32.8824L29.7756 32.8708C29.7537 32.7607 29.6578 32.6548 29.5943 32.5619L29.1448 31.9188L27.4609 29.4733L29.6585 24.4383Z" fill="#FBDD62"/>
<path d="M29.8283 24.4289L29.9205 24.5274L32.0788 29.4704C31.9735 29.8181 31.6955 30.1624 31.4966 30.4661L30.4326 32.0664C30.2764 32.288 29.9255 32.6593 29.8799 32.9097L29.8134 32.9094L29.8037 32.8824L29.8283 24.4289Z" fill="#D27318"/>
<path d="M27.4614 29.4733L29.1453 31.9188L29.5947 32.5619C29.6583 32.6549 29.7541 32.7608 29.7761 32.8708L29.8047 32.8824L29.8143 32.9095L29.8809 32.9098C29.8758 32.9463 29.866 32.9813 29.8745 33.0177C29.7809 33.2597 29.8448 33.7494 29.8468 34.0185L29.8463 36.3443C29.4225 36.5824 29.0215 36.9606 28.6335 37.2569C27.7925 37.899 26.9297 38.5654 26.0419 39.1397L25.7599 39.3015C25.6298 39.4083 25.3442 39.6536 25.1866 39.6942L25.838 34.2122C25.8698 34.0331 25.8981 33.8653 25.8931 33.6822L23.0563 31.2401C22.6916 30.9285 22.2008 30.6358 21.905 30.2706L21.8438 30.1999L21.9233 30.1279C23.1701 29.9107 24.458 29.8009 25.7182 29.6736L26.7855 29.5602C27.0083 29.5378 27.2447 29.5297 27.4614 29.4733Z" fill="#F2A814"/>
<path d="M29.8142 32.9095L29.8807 32.9097C29.8757 32.9463 29.8659 32.9813 29.8744 33.0176C29.7807 33.2597 29.8447 33.7494 29.8466 34.0185L29.8462 36.3442C29.4224 36.5823 29.0214 36.9606 28.6333 37.2569C27.7924 37.899 26.9296 38.5654 26.0417 39.1397L25.7598 39.3015C25.7612 39.2152 25.7677 39.1508 25.8131 39.0751C26.0049 38.7547 26.2535 38.4586 26.4575 38.1432L28.6867 34.6145C29.0177 34.0885 29.4059 33.574 29.7088 33.0349L29.8142 32.9095Z" fill="#F17908"/>
<path d="M27.4614 29.4733L29.1453 31.9188L29.5947 32.5619C29.6583 32.6549 29.7541 32.7608 29.7761 32.8708C29.5588 32.8297 29.3499 32.7364 29.1417 32.6626L28.0211 32.264L23.3007 30.6722C22.9345 30.5553 22.5758 30.4006 22.2068 30.296C22.1033 30.2666 22.012 30.2523 21.905 30.2706L21.8438 30.1999L21.9233 30.1279C23.1701 29.9107 24.458 29.8009 25.7182 29.6736L26.7855 29.5602C27.0083 29.5378 27.2447 29.5297 27.4614 29.4733Z" fill="#FEFEFE"/>
</mask>
<g mask="url(#mask0_190_55649)">
<rect y="1.00006" width="61" height="67" fill="black"/>
</g>
</g>
<defs>
<linearGradient id="paint0_linear_190_55649" x1="26.3357" y1="48.0751" x2="25.2689" y2="47.4833" gradientUnits="userSpaceOnUse">
<stop stop-color="#FFD37A"/>
<stop offset="1" stop-color="#F5CCB5"/>
</linearGradient>
<linearGradient id="paint1_linear_190_55649" x1="30.1763" y1="39.6111" x2="22.3042" y2="17.5494" gradientUnits="userSpaceOnUse">
<stop stop-color="#C4CFD7"/>
<stop offset="1" stop-color="#8CD0F9"/>
</linearGradient>
<linearGradient id="paint2_linear_190_55649" x1="23.079" y1="23.3682" x2="36.2174" y2="42.0838" gradientUnits="userSpaceOnUse">
<stop stop-color="#8C9EAD"/>
<stop offset="1" stop-color="#6DA3C2"/>
</linearGradient>
<linearGradient id="paint3_linear_190_55649" x1="36.9916" y1="40.1222" x2="22.3509" y2="24.5124" gradientUnits="userSpaceOnUse">
<stop stop-color="#C3E0F0"/>
<stop offset="1" stop-color="white"/>
</linearGradient>
<linearGradient id="paint4_linear_190_55649" x1="26.3357" y1="48.0751" x2="25.2689" y2="47.4833" gradientUnits="userSpaceOnUse">
<stop stop-color="#FFD37A"/>
<stop offset="1" stop-color="#F5CCB5"/>
</linearGradient>
<linearGradient id="paint5_linear_190_55649" x1="30.1763" y1="39.6111" x2="22.3042" y2="17.5494" gradientUnits="userSpaceOnUse">
<stop stop-color="#C4CFD7"/>
<stop offset="1" stop-color="#8CD0F9"/>
</linearGradient>
<linearGradient id="paint6_linear_190_55649" x1="23.079" y1="23.3682" x2="36.2174" y2="42.0838" gradientUnits="userSpaceOnUse">
<stop stop-color="#8C9EAD"/>
<stop offset="1" stop-color="#6DA3C2"/>
</linearGradient>
<linearGradient id="paint7_linear_190_55649" x1="36.9916" y1="40.1222" x2="22.3509" y2="24.5124" gradientUnits="userSpaceOnUse">
<stop stop-color="#C3E0F0"/>
<stop offset="1" stop-color="white"/>
</linearGradient>
</defs>
</svg>
