<svg width="17" height="22" viewBox="0 0 17 22" fill="none" xmlns="http://www.w3.org/2000/svg">
<path d="M8.47514 2.44672L8.48254 2.44676C8.92432 2.44917 9.35135 2.46092 9.78824 2.48834L8.47514 2.44672ZM8.47514 2.44672L8.46775 2.44689M8.47514 2.44672L8.46775 2.44689M8.46775 2.44689L6.76692 2.48797C6.49599 2.26663 6.36977 2.04992 6.30871 1.84529L6.30869 1.84524M8.46775 2.44689L6.30869 1.84524M6.30869 1.84524C6.26307 1.6924 6.26875 1.52292 6.3485 1.35491M6.30869 1.84524L6.3485 1.35491M8.13718 0.502183C8.40157 0.491729 8.69503 0.519525 8.92636 0.569479C9.58044 0.710742 9.96129 1.02312 10.1169 1.23729L8.13718 0.502183ZM8.13718 0.502183C7.6069 0.528919 7.24616 0.650932 6.93756 0.811096L8.13718 0.502183ZM6.3485 1.35491C6.42853 1.18633 6.59932 0.986652 6.93755 0.8111L6.3485 1.35491ZM10.2765 1.7553C10.2596 1.91708 10.1771 2.1102 9.98228 2.31656L10.1169 1.2373C10.2531 1.42485 10.2929 1.59856 10.2765 1.7553Z" stroke="#0F1011"/>
<path d="M7.79702 20.609L7.79704 20.609C8.10447 20.8622 8.49251 20.9575 8.89057 20.8971C9.10828 20.8641 9.31102 20.7669 9.54039 20.5992C9.86727 20.3314 10.0858 19.9478 10.1463 19.4984L7.79702 20.609ZM7.79702 20.609C7.46511 20.3357 7.25027 19.9399 7.19484 19.4726L7.79702 20.609ZM7.38409 18.5004L9.98961 18.5046C10.1375 18.8001 10.1936 19.1471 10.1463 19.4984L7.38409 18.5004ZM7.38409 18.5004C7.22421 18.7992 7.1545 19.1324 7.19484 19.4726L7.38409 18.5004Z" stroke="#0F1011"/>
<path d="M10.6347 3.35351L10.6347 3.35351C12.4693 4.18216 13.7432 5.90297 14.0782 7.90243C14.1465 8.30967 14.1594 8.69782 14.174 9.1344C14.1816 9.36082 14.1896 9.60028 14.206 9.86218L14.2071 9.87982L14.209 9.8974L14.5042 12.5808L14.5059 12.5954L14.5081 12.61C14.7927 14.5072 15.2419 16.3644 15.8712 18.1799C15.8671 18.2074 15.863 18.2296 15.859 18.2477L8.59923 18.1541L8.58993 18.154L8.58063 18.1541L0.75074 18.2474C0.748431 18.1935 0.750991 18.1126 0.764734 17.9932C0.782402 17.8397 0.813962 17.6575 0.856948 17.4279C1.27422 16.1279 1.59678 14.7921 1.84051 13.4582C2.04179 12.3567 2.18255 11.2406 2.26884 10.1277C2.29259 9.82142 2.30414 9.51272 2.31504 9.22164C2.31705 9.1679 2.31904 9.11476 2.32108 9.06236C2.33447 8.71813 2.35021 8.39666 2.38572 8.08392C2.51786 6.92063 3.01596 5.78034 3.7818 4.89557C4.47545 4.09423 5.36722 3.47274 6.35488 3.14268C6.85671 2.97498 7.38773 2.88106 7.93891 2.84167C8.86924 2.79307 9.78232 2.96849 10.6347 3.35351Z" stroke="#0F1011" stroke-width="1.5"/>
</svg>
