<svg width="23" height="21" viewBox="0 0 23 21" fill="none" xmlns="http://www.w3.org/2000/svg">
<path d="M19.4718 6.23261H16.4465L15.0366 0.591001C14.9324 0.174255 14.5079 -0.0827865 14.0921 0.0243226C13.6744 0.128508 13.4212 0.552066 13.5254 0.968812L14.8418 6.23253H7.48953L8.80595 0.968812C8.91013 0.552066 8.65697 0.129487 8.23927 0.0243226C7.81863 -0.0818094 7.39897 0.17427 7.29478 0.591001L5.88489 6.23261H2.85956C1.93065 6.23261 1.08647 6.66493 0.542171 7.41953C-0.00115115 8.17316 -0.144279 9.11182 0.149779 9.99294L2.91986 18.3014C3.30836 19.4689 4.39792 20.2537 5.62862 20.2537H16.7044C17.9362 20.2537 19.0248 19.4689 19.4132 18.3014L22.1833 9.99294C22.4773 9.11174 22.3342 8.17311 21.7909 7.41953C21.2476 6.66493 20.4024 6.23261 19.4735 6.23261H19.4718ZM20.7035 9.49922L17.9334 17.8077C17.7562 18.3384 17.2616 18.6947 16.7017 18.6947L5.6269 18.6957C5.06702 18.6957 4.57238 18.3384 4.39518 17.8087L1.6251 9.5002C1.49171 9.1 1.55694 8.67354 1.80329 8.3308C2.0506 7.98806 2.43423 7.79136 2.85683 7.79136H5.49255L5.21505 8.90136C5.11086 9.31811 5.36402 9.74069 5.78173 9.84585C5.84599 9.86241 5.90928 9.86922 5.9716 9.86922C6.32017 9.86922 6.63858 9.63262 6.72717 9.27916L7.09912 7.79235H15.2304L15.6023 9.27916C15.6909 9.63359 16.0084 9.86922 16.3579 9.86922C16.4202 9.86922 16.4845 9.86241 16.5478 9.84585C16.9655 9.74167 17.2187 9.31811 17.1145 8.90136L16.837 7.79136H19.4727C19.8953 7.79136 20.2789 7.98805 20.5262 8.3308C20.7735 8.67354 20.8378 9.1 20.7044 9.5002L20.7035 9.49922ZM7.78862 11.1652V15.32C7.78862 15.7503 7.44005 16.0989 7.00967 16.0989C6.57929 16.0989 6.23072 15.7503 6.23072 15.32V11.1652C6.23072 10.7348 6.57929 10.3863 7.00967 10.3863C7.44005 10.3863 7.78862 10.7348 7.78862 11.1652ZM11.9434 11.1652V15.32C11.9434 15.7503 11.5948 16.0989 11.1644 16.0989C10.734 16.0989 10.3855 15.7503 10.3855 15.32V11.1652C10.3855 10.7348 10.734 10.3863 11.1644 10.3863C11.5948 10.3863 11.9434 10.7348 11.9434 11.1652ZM16.0981 11.1652V15.32C16.0981 15.7503 15.7495 16.0989 15.3192 16.0989C14.8888 16.0989 14.5402 15.7503 14.5402 15.32V11.1652C14.5402 10.7348 14.8888 10.3863 15.3192 10.3863C15.7495 10.3863 16.0981 10.7348 16.0981 11.1652Z" fill="#0F1011"/>
</svg>
