<svg width="142" height="29" viewBox="0 0 142 29" fill="none" xmlns="http://www.w3.org/2000/svg">
<path d="M15.4203 24.2924C15.4203 25.9017 14.7465 27.0887 13.3985 27.8533C12.0506 28.6178 9.99862 29 7.24242 29C5.89458 29 4.75782 28.9094 3.83245 28.7284C2.92715 28.5674 2.18284 28.326 1.59937 28.0041C1.03612 27.6822 0.623603 27.2899 0.362121 26.8272C0.120707 26.3645 0 25.8414 0 25.2581C0 24.4131 0.231305 23.7492 0.694065 23.2664C1.17689 22.8036 1.85089 22.4616 2.71591 22.2404V21.9386C2.19279 21.7373 1.77032 21.4558 1.44848 21.0937C1.14672 20.7315 0.995833 20.2587 0.995833 19.6753C0.995833 18.9108 1.25732 18.3375 1.78043 17.9553C2.30354 17.5529 2.97739 17.2511 3.80227 17.0498V16.8989C2.85668 16.4564 2.12248 15.8328 1.59937 15.028C1.07625 14.2233 0.814773 13.2577 0.814773 12.131C0.814773 11.3063 0.965657 10.5618 1.26742 9.89792C1.56919 9.21397 1.99167 8.64061 2.53485 8.17785C3.0981 7.69502 3.76199 7.32294 4.52652 7.06131C5.31111 6.79983 6.18624 6.66901 7.15189 6.66901C8.23826 6.66901 9.21402 6.84011 10.079 7.18201V6.66901C10.079 6.06548 10.2501 5.56258 10.592 5.16018C10.9341 4.75777 11.4572 4.55664 12.1612 4.55664H14.9979V7.15184H11.3766V7.87608C12.0607 8.33885 12.5837 8.93227 12.9458 9.65651C13.308 10.3607 13.489 11.1856 13.489 12.131C13.489 12.9559 13.3381 13.7103 13.0364 14.3943C12.7346 15.0582 12.3022 15.6315 11.7388 16.1143C11.1956 16.5771 10.5317 16.9392 9.7471 17.2009C8.98272 17.4423 8.11755 17.563 7.15189 17.563C6.46794 17.563 5.82412 17.5026 5.22058 17.3819C4.85846 17.4824 4.49634 17.6535 4.13422 17.8949C3.77209 18.1363 3.59104 18.4683 3.59104 18.8908C3.59104 19.3736 3.82234 19.6753 4.2851 19.7961C4.74786 19.9168 5.32122 19.9771 6.00518 19.9771H9.50568C11.598 19.9771 13.1068 20.3794 14.0322 21.1842C14.9577 21.9688 15.4203 23.0047 15.4203 24.2924ZM12.3423 24.5036C12.3423 23.9805 12.1311 23.558 11.7086 23.2362C11.2861 22.9344 10.5217 22.7836 9.41515 22.7836H4.01351C3.24898 23.1457 2.86679 23.729 2.86679 24.5338C2.86679 25.1171 3.10821 25.6202 3.59104 26.0426C4.09393 26.4651 4.91881 26.6764 6.06553 26.6764H8.50985C9.7572 26.6764 10.7028 26.4852 11.3465 26.103C12.0104 25.7409 12.3423 25.2077 12.3423 24.5036ZM7.15189 15.2996C8.21819 15.2996 9.00279 15.0482 9.50568 14.5452C10.0087 14.0423 10.2601 13.3683 10.2601 12.5233V11.7085C10.2601 10.8636 10.0087 10.1897 9.50568 9.68669C9.00279 9.18379 8.21819 8.93227 7.15189 8.93227C6.08575 8.93227 5.301 9.18379 4.79811 9.68669C4.29521 10.1897 4.04369 10.8636 4.04369 11.7085V12.5233C4.04369 13.3683 4.29521 14.0423 4.79811 14.5452C5.301 15.0482 6.08575 15.2996 7.15189 15.2996Z" fill="#0F1011"/>
<path d="M25.7288 4.19457C24.8838 4.19457 24.2903 4.02362 23.9484 3.68156C23.6264 3.33951 23.4655 2.91704 23.4655 2.41414V1.78043C23.4655 1.27753 23.6264 0.855058 23.9484 0.513004C24.2903 0.17095 24.8737 0 25.6986 0C26.5436 0 27.1269 0.17095 27.4489 0.513004C27.7908 0.855058 27.9619 1.27753 27.9619 1.78043V2.41414C27.9619 2.91704 27.7908 3.33951 27.4489 3.68156C27.1269 4.02362 26.5535 4.19457 25.7288 4.19457ZM18.7578 19.947H24.0691V9.68674H18.7578V7.03118H27.3583V19.947H32.3375V22.6026H18.7578V19.947Z" fill="#0F1011"/>
<path d="M36.1887 7.03118H39.4779V9.68674H39.659C40.1217 8.74131 40.7352 8.00695 41.4998 7.48383C42.2643 6.94065 43.2198 6.66907 44.3666 6.66907C46.1972 6.66907 47.6558 7.35317 48.7422 8.72108C49.8286 10.0891 50.3717 12.1211 50.3717 14.8168C50.3717 17.5126 49.8286 19.5446 48.7422 20.9127C47.6558 22.2806 46.1972 22.9647 44.3666 22.9647C43.2198 22.9647 42.2643 22.703 41.4998 22.1801C40.7352 21.6369 40.1217 20.8924 39.659 19.947H39.4779V28.6379H36.1887V7.03118ZM43.0086 20.2789C44.256 20.2789 45.2115 19.8966 45.8754 19.1322C46.5594 18.3677 46.9014 17.3518 46.9014 16.0842V13.5494C46.9014 12.2819 46.5594 11.266 45.8754 10.5015C45.2115 9.73713 44.256 9.3548 43.0086 9.3548C42.5258 9.3548 42.0731 9.41515 41.6507 9.53586C41.2282 9.65657 40.8559 9.83762 40.5341 10.079C40.2123 10.3205 39.9506 10.6222 39.7495 10.9843C39.5685 11.3264 39.4779 11.7388 39.4779 12.2216V17.4121C39.4779 17.895 39.5685 18.3175 39.7495 18.6796C39.9506 19.0215 40.2123 19.3133 40.5341 19.5547C40.8559 19.7961 41.2282 19.9772 41.6507 20.0979C42.0731 20.2186 42.5258 20.2789 43.0086 20.2789Z" fill="#0F1011"/>
<path d="M61.2841 22.9647C60.0973 22.9647 59.031 22.7735 58.0854 22.3913C57.14 22.009 56.3453 21.4658 55.7014 20.7618C55.0578 20.0576 54.5648 19.2126 54.2228 18.2269C53.8809 17.221 53.7098 16.0943 53.7098 14.847C53.7098 13.5998 53.8809 12.4731 54.2228 11.4672C54.5849 10.4614 55.0778 9.60632 55.7014 8.90215C56.3453 8.1779 57.1197 7.62476 58.0251 7.24242C58.9304 6.86024 59.9363 6.66907 61.0427 6.66907C62.1291 6.66907 63.115 6.86024 64.0002 7.24242C64.8853 7.60455 65.6397 8.12766 66.2635 8.81162C66.8871 9.49573 67.3598 10.3105 67.6818 11.2559C68.0237 12.2015 68.1948 13.2476 68.1948 14.3943V15.6316H57.0292V16.1446C57.0292 17.3719 57.4116 18.3778 58.1759 19.1624C58.9405 19.9268 59.9967 20.3091 61.3445 20.3091C62.3504 20.3091 63.2055 20.0979 63.9097 19.6754C64.6339 19.2327 65.2172 18.6494 65.6599 17.9252L67.7119 19.7358C67.1888 20.6411 66.3842 21.4054 65.2978 22.0292C64.2315 22.6528 62.8936 22.9647 61.2841 22.9647ZM61.0427 9.17374C60.4594 9.17374 59.9162 9.27437 59.4132 9.4755C58.9304 9.67678 58.5079 9.96844 58.1458 10.3506C57.8039 10.7127 57.5323 11.1453 57.331 11.6482C57.1299 12.1513 57.0292 12.7044 57.0292 13.308V13.5192H64.8452V13.2174C64.8452 11.9903 64.493 11.0145 63.789 10.2903C63.1049 9.54597 62.1894 9.17374 61.0427 9.17374Z" fill="#0F1011"/>
<path d="M71.9851 19.947H76.1193V9.68675H71.9851V7.03119H79.4086V11.1654H79.5897C79.7305 10.6222 79.9317 10.0993 80.1932 9.59621C80.4547 9.09332 80.7866 8.66074 81.1891 8.29862C81.5915 7.91643 82.0842 7.61466 82.6677 7.39331C83.2512 7.1519 83.9351 7.03119 84.7197 7.03119H86.5907V10.1696H83.5127C82.3056 10.1696 81.3199 10.5317 80.5553 11.2559C79.7908 11.9601 79.4086 12.9157 79.4086 14.1227V19.947H85.0517V22.6026H71.9851V19.947Z" fill="#0F1011"/>
<path d="M96.8392 22.9043C95.8735 22.9043 95.1895 22.703 94.7871 22.3008C94.4049 21.8984 94.2138 21.4054 94.2138 20.8221V20.0375C94.2138 19.4541 94.4049 18.9611 94.7871 18.5589C95.1895 18.1565 95.8735 17.9553 96.8392 17.9553C97.8048 17.9553 98.4788 18.1565 98.861 18.5589C99.2634 18.9611 99.4645 19.4541 99.4645 20.0375V20.8221C99.4645 21.4054 99.2634 21.8984 98.861 22.3008C98.4788 22.703 97.8048 22.9043 96.8392 22.9043Z" fill="#0F1011"/>
<path d="M108.234 19.9469H113.214V9.68664H107.933V7.03108H113.214V4.22464C113.214 3.05786 113.536 2.11227 114.179 1.38803C114.823 0.643718 115.829 0.271484 117.197 0.271484H122.448V2.92704H116.503V7.03108H122.448V9.68664H116.503V19.9469H121.754V22.6024H108.234V19.9469Z" fill="#0F1011"/>
<path d="M125.906 22.6026V7.03118H128.713V9.05303H128.863C129.105 8.38914 129.447 7.82589 129.889 7.36313C130.352 6.90052 131.006 6.66907 131.851 6.66907C132.676 6.66907 133.309 6.90052 133.752 7.36313C134.215 7.80582 134.506 8.41932 134.627 9.20391H134.748C135.03 8.49989 135.422 7.90631 135.925 7.42349C136.428 6.92059 137.152 6.66907 138.098 6.66907C139.305 6.66907 140.139 7.09154 140.603 7.93649C141.085 8.78144 141.327 10.0187 141.327 11.6482V22.6026H138.52V12.0707C138.52 10.9843 138.389 10.24 138.128 9.83763C137.866 9.41515 137.443 9.20391 136.861 9.20391C136.337 9.20391 135.895 9.38497 135.533 9.74709C135.19 10.0891 135.019 10.6123 135.019 11.3163V22.6026H132.213V12.0707C132.213 10.9843 132.082 10.24 131.821 9.83763C131.579 9.41515 131.167 9.20391 130.583 9.20391C130.04 9.20391 129.588 9.38497 129.226 9.74709C128.883 10.0891 128.713 10.6123 128.713 11.3163V22.6026H125.906Z" fill="#0F1011"/>
</svg>
